<?plantuml 1.2026.2?><svg xmlns="http://www.w3.org/2000/svg" xmlns:xlink="http://www.w3.org/1999/xlink" contentStyleType="text/css" data-diagram-type="STATE" height="1237px" preserveAspectRatio="none" style="width:287px;height:1237px;background:#FFFFFF;" version="1.1" viewBox="0 0 287 1237" width="287px" zoomAndPan="magnify"><title>Lifecycle Workflow - State</title><defs/><g><g class="title" data-source-line="1"><text fill="#000000" font-family="sans-serif" font-size="14" font-weight="bold" lengthAdjust="spacing" textLength="173.4824" x="49.8464" y="24.5332">Lifecycle Workflow - State</text></g><g class="start_entity" data-qualified-name=".start." data-source-line="4" id="ent0002"><ellipse cx="101" cy="54.6094" fill="#222222" rx="10" ry="10" style="stroke:#222222;stroke-width:1;"/></g><g class="entity" data-qualified-name="Constructed" id="ent0003"><rect fill="#F1F1F1" height="50" rx="12.5" ry="12.5" style="stroke:#181818;stroke-width:0.5;" width="95.4824" x="53.5" y="125.6094"/><line style="stroke:#181818;stroke-width:0.5;" x1="53.5" x2="148.9824" y1="153.2188" y2="153.2188"/><text fill="#000000" font-family="sans-serif" font-size="14" lengthAdjust="spacing" textLength="75.4824" x="63.5" y="145.1426">Constructed</text></g><g class="entity" data-qualified-name="ConfigLoaded" id="ent0005"><rect fill="#F1F1F1" height="50" rx="12.5" ry="12.5" style="stroke:#181818;stroke-width:0.5;" width="107.1855" x="47.5" y="253.6094"/><line style="stroke:#181818;stroke-width:0.5;" x1="47.5" x2="154.6855" y1="281.2188" y2="281.2188"/><text fill="#000000" font-family="sans-serif" font-size="14" lengthAdjust="spacing" textLength="87.1855" x="57.5" y="273.1426">ConfigLoaded</text></g><g class="entity" data-qualified-name="DependenciesReady" id="ent0007"><rect fill="#F1F1F1" height="50" rx="12.5" ry="12.5" style="stroke:#181818;stroke-width:0.5;" width="149.9785" x="26" y="397.6094"/><line style="stroke:#181818;stroke-width:0.5;" x1="26" x2="175.9785" y1="425.2188" y2="425.2188"/><text fill="#000000" font-family="sans-serif" font-size="14" lengthAdjust="spacing" textLength="129.9785" x="36" y="417.1426">DependenciesReady</text></g><g class="entity" data-qualified-name="Restoring" id="ent0009"><rect fill="#F1F1F1" height="50" rx="12.5" ry="12.5" style="stroke:#181818;stroke-width:0.5;" width="79.917" x="7" y="525.6094"/><line style="stroke:#181818;stroke-width:0.5;" x1="7" x2="86.917" y1="553.2188" y2="553.2188"/><text fill="#000000" font-family="sans-serif" font-size="14" lengthAdjust="spacing" textLength="59.917" x="17" y="545.1426">Restoring</text></g><g class="entity" data-qualified-name="WarmingUp" id="ent0011"><rect fill="#F1F1F1" height="50" rx="12.5" ry="12.5" style="stroke:#181818;stroke-width:0.5;" width="93.9033" x="57" y="653.6094"/><line style="stroke:#181818;stroke-width:0.5;" x1="57" x2="150.9033" y1="681.2188" y2="681.2188"/><text fill="#000000" font-family="sans-serif" font-size="14" lengthAdjust="spacing" textLength="73.9033" x="67" y="673.1426">WarmingUp</text></g><g class="entity" data-qualified-name="Ready" id="ent0014"><rect fill="#F1F1F1" height="50" rx="12.5" ry="12.5" style="stroke:#181818;stroke-width:0.5;" width="60.4688" x="74" y="781.6094"/><line style="stroke:#181818;stroke-width:0.5;" x1="74" x2="134.4688" y1="809.2188" y2="809.2188"/><text fill="#000000" font-family="sans-serif" font-size="14" lengthAdjust="spacing" textLength="40.4688" x="84" y="801.1426">Ready</text></g><g class="entity" data-qualified-name="Running" id="ent0016"><rect fill="#F1F1F1" height="50" rx="12.5" ry="12.5" style="stroke:#181818;stroke-width:0.5;" width="72.1514" x="68" y="909.6094"/><line style="stroke:#181818;stroke-width:0.5;" x1="68" x2="140.1514" y1="937.2188" y2="937.2188"/><text fill="#000000" font-family="sans-serif" font-size="14" lengthAdjust="spacing" textLength="52.1514" x="78" y="929.1426">Running</text></g><g class="entity" data-qualified-name="Stopping" id="ent0018"><rect fill="#F1F1F1" height="50" rx="12.5" ry="12.5" style="stroke:#181818;stroke-width:0.5;" width="75.2686" x="66.5" y="1037.6094"/><line style="stroke:#181818;stroke-width:0.5;" x1="66.5" x2="141.7686" y1="1065.2188" y2="1065.2188"/><text fill="#000000" font-family="sans-serif" font-size="14" lengthAdjust="spacing" textLength="55.2686" x="76.5" y="1057.1426">Stopping</text></g><g class="entity" data-qualified-name="Stopped" id="ent0020"><rect fill="#F1F1F1" height="50" rx="12.5" ry="12.5" style="stroke:#181818;stroke-width:0.5;" width="72.1582" x="68" y="1181.6094"/><line style="stroke:#181818;stroke-width:0.5;" x1="68" x2="140.1582" y1="1209.2188" y2="1209.2188"/><text fill="#000000" font-family="sans-serif" font-size="14" lengthAdjust="spacing" textLength="52.1582" x="78" y="1201.1426">Stopped</text></g><!--link *start* to Constructed--><g class="link" data-entity-1="ent0002" data-entity-2="ent0003" data-link-type="dependency" data-source-line="4" id="lnk4"><path d="M101,64.6194 C101,78.4994 101,99.5794 101,119.4494" fill="none" id="*start*-to-Constructed" style="stroke:#181818;stroke-width:1;"/><polygon fill="#181818" points="101,125.4494,105,116.4494,101,120.4494,97,116.4494,101,125.4494" style="stroke:#181818;stroke-width:1;"/></g><!--link Constructed to ConfigLoaded--><g class="link" data-entity-1="ent0003" data-entity-2="ent0005" data-link-type="dependency" data-source-line="5" id="lnk6"><path d="M101,175.8994 C101,198.2194 101,225.0994 101,247.3894" fill="none" id="Constructed-to-ConfigLoaded" style="stroke:#181818;stroke-width:1;"/><polygon fill="#181818" points="101,253.3894,105,244.3894,101,248.3894,97,244.3894,101,253.3894" style="stroke:#181818;stroke-width:1;"/><text fill="#000000" font-family="sans-serif" font-size="13" lengthAdjust="spacing" textLength="112.0234" x="102" y="220.1045">on_init / load config</text></g><!--link ConfigLoaded to DependenciesReady--><g class="link" data-entity-1="ent0005" data-entity-2="ent0007" data-link-type="dependency" data-source-line="6" id="lnk8"><path d="M101,303.6994 C101,329.8094 101,365.2494 101,391.3994" fill="none" id="ConfigLoaded-to-DependenciesReady" style="stroke:#181818;stroke-width:1;"/><polygon fill="#181818" points="101,397.3994,105,388.3994,101,392.3994,97,388.3994,101,397.3994" style="stroke:#181818;stroke-width:1;"/><text fill="#000000" font-family="sans-serif" font-size="13" lengthAdjust="spacing" textLength="91.0317" x="120.0813" y="348.1045">create services,</text><text fill="#000000" font-family="sans-serif" font-size="13" lengthAdjust="spacing" textLength="127.1943" x="102" y="364.4561">aggregates, gateways</text></g><!--link DependenciesReady to Restoring--><g class="link" data-entity-1="ent0007" data-entity-2="ent0009" data-link-type="dependency" data-source-line="7" id="lnk10"><path d="M63.91,447.6394 C54.32,455.8794 45.23,465.9994 40,477.6094 C33.24,492.6094 33.8132,505.2815 37.3632,519.7815" fill="none" id="DependenciesReady-to-Restoring" style="stroke:#181818;stroke-width:1;"/><polygon fill="#181818" points="38.79,525.6094,40.535,515.9163,37.601,520.7528,32.7645,517.8188,38.79,525.6094" style="stroke:#181818;stroke-width:1;"/><text fill="#000000" font-family="sans-serif" font-size="13" lengthAdjust="spacing" textLength="92.4917" x="41" y="492.1045">live restore path</text></g><!--link DependenciesReady to WarmingUp--><g class="link" data-entity-1="ent0007" data-entity-2="ent0011" data-link-type="dependency" data-source-line="8" id="lnk12"><path d="M122.12,447.7694 C128.51,456.5594 134.7,466.9694 138,477.6094 C157.2,539.5894 155.99,561.2694 138,623.6094 C134.96,634.1494 132.5286,639.624 126.5886,648.494" fill="none" id="DependenciesReady-to-WarmingUp" style="stroke:#181818;stroke-width:1;"/><polygon fill="#181818" points="123.25,653.4794,131.5814,648.227,126.0321,649.3249,124.9343,643.7756,123.25,653.4794" style="stroke:#181818;stroke-width:1;"/><text fill="#000000" font-family="sans-serif" font-size="13" lengthAdjust="spacing" textLength="127.1753" x="152" y="556.1045">backtest warmup path</text></g><!--link Restoring to WarmingUp--><g class="link" data-entity-1="ent0009" data-entity-2="ent0011" data-link-type="dependency" data-source-line="9" id="lnk13"><path d="M46.02,575.9394 C46.32,590.3694 48.28,608.7094 55,623.6094 C59.95,634.5694 63.8406,640.4865 71.9706,649.0565" fill="none" id="Restoring-to-WarmingUp" style="stroke:#181818;stroke-width:1;"/><polygon fill="#181818" points="76.1,653.4094,72.8078,644.1271,72.6588,649.7819,67.0039,649.633,76.1,653.4094" style="stroke:#181818;stroke-width:1;"/><text fill="#000000" font-family="sans-serif" font-size="13" lengthAdjust="spacing" textLength="77.3081" x="56" y="620.1045">replay history</text></g><!--link WarmingUp to Ready--><g class="link" data-entity-1="ent0011" data-entity-2="ent0014" data-link-type="dependency" data-source-line="10" id="lnk15"><path d="M104,703.8994 C104,726.2194 104,753.0994 104,775.3894" fill="none" id="WarmingUp-to-Ready" style="stroke:#181818;stroke-width:1;"/><polygon fill="#181818" points="104,781.3894,108,772.3894,104,776.3894,100,772.3894,104,781.3894" style="stroke:#181818;stroke-width:1;"/><text fill="#000000" font-family="sans-serif" font-size="13" lengthAdjust="spacing" textLength="94.6563" x="105" y="748.1045">warmup finished</text></g><!--link Ready to Running--><g class="link" data-entity-1="ent0014" data-entity-2="ent0016" data-link-type="dependency" data-source-line="11" id="lnk17"><path d="M104,831.8994 C104,854.2194 104,881.0994 104,903.3894" fill="none" id="Ready-to-Running" style="stroke:#181818;stroke-width:1;"/><polygon fill="#181818" points="104,909.3894,108,900.3894,104,904.3894,100,900.3894,104,909.3894" style="stroke:#181818;stroke-width:1;"/><text fill="#000000" font-family="sans-serif" font-size="13" lengthAdjust="spacing" textLength="46.9727" x="105" y="876.1045">on_start</text></g><!--link Running to Stopping--><g class="link" data-entity-1="ent0016" data-entity-2="ent0018" data-link-type="dependency" data-source-line="12" id="lnk19"><path d="M104,959.8994 C104,982.2194 104,1009.0994 104,1031.3894" fill="none" id="Running-to-Stopping" style="stroke:#181818;stroke-width:1;"/><polygon fill="#181818" points="104,1037.3894,108,1028.3894,104,1032.3894,100,1028.3894,104,1037.3894" style="stroke:#181818;stroke-width:1;"/><text fill="#000000" font-family="sans-serif" font-size="13" lengthAdjust="spacing" textLength="46.2617" x="105" y="1004.1045">on_stop</text></g><!--link Stopping to Stopped--><g class="link" data-entity-1="ent0018" data-entity-2="ent0020" data-link-type="dependency" data-source-line="13" id="lnk21"><path d="M104,1087.6994 C104,1113.8094 104,1149.2494 104,1175.3994" fill="none" id="Stopping-to-Stopped" style="stroke:#181818;stroke-width:1;"/><polygon fill="#181818" points="104,1181.3994,108,1172.3994,104,1176.3994,100,1172.3994,104,1181.3994" style="stroke:#181818;stroke-width:1;"/><text fill="#000000" font-family="sans-serif" font-size="13" lengthAdjust="spacing" textLength="87.4453" x="115.8418" y="1132.1045">save snapshot,</text><text fill="#000000" font-family="sans-serif" font-size="13" lengthAdjust="spacing" textLength="109.1289" x="105" y="1148.4561">shutdown handlers</text></g><?plantuml-src TL6xRiCm3Dpr5PoB1DqpT6d7J0cA36bHi39j2L4eGQHZ-EzBnysZBJg9kEEHnvD6JGJhs98VlLMxN0zjoWCiOQkevEGGkM358qZ09W-HEsWn2JctVtY7vV89dZEBrjuhDUwkld1jxDOP6mDMaFaZSbHuX6GG-3FhVZHDgXSgn0snZoGRmcOqgQzaVa2edg8dMRmnTbsbpa1PmFGCE8hxAvq6RaWqrydx2b8y4TGpG51Gmp-Q7TQZALwBQJxH7soFmc1WNsRPRUZlzaebuGWXJWsZkr6pb_cWxr6j1IB1ehjpspFFNYqlKQpgBj14RpMNSiVdugxGbJ_7BMYd2cEHaDKIaz2h_I53G6uILVa2?></g></svg>