<?plantuml 1.2026.2?><svg xmlns="http://www.w3.org/2000/svg" xmlns:xlink="http://www.w3.org/1999/xlink" contentStyleType="text/css" data-diagram-type="DESCRIPTION" height="298px" preserveAspectRatio="none" style="width:1287px;height:298px;background:#FFFFFF;" version="1.1" viewBox="0 0 1287 298" width="1287px" zoomAndPan="magnify"><title>Lifecycle Workflow - Architecture</title><defs/><g><g class="title" data-source-line="1"><text fill="#000000" font-family="sans-serif" font-size="14" font-weight="bold" lengthAdjust="spacing" textLength="221.7168" x="472.3916" y="24.5332">Lifecycle Workflow - Architecture</text></g><!--entity entry--><g class="entity" data-qualified-name="entry" data-source-line="6" id="ent0002"><rect fill="#F1F1F1" height="37.6094" rx="2.5" ry="2.5" style="stroke:#181818;stroke-width:0.5;" width="104.8135" x="503.5" y="50.6094"/><text fill="#000000" font-family="sans-serif" font-size="14" lengthAdjust="spacing" textLength="84.8135" x="513.5" y="75.1426">StrategyEntry</text></g><!--entity workflow--><g class="entity" data-qualified-name="workflow" data-source-line="7" id="ent0003"><rect fill="#F1F1F1" height="37.6094" rx="2.5" ry="2.5" style="stroke:#181818;stroke-width:0.5;" width="132.0273" x="490" y="144.6094"/><text fill="#000000" font-family="sans-serif" font-size="14" lengthAdjust="spacing" textLength="112.0273" x="500" y="169.1426">LifecycleWorkflow</text></g><!--entity config--><g class="entity" data-qualified-name="config" data-source-line="8" id="ent0004"><rect fill="#F1F1F1" height="37.6094" rx="2.5" ry="2.5" style="stroke:#181818;stroke-width:0.5;" width="104.0615" x="6" y="254.6094"/><text fill="#000000" font-family="sans-serif" font-size="14" lengthAdjust="spacing" textLength="84.0615" x="16" y="279.1426">ConfigLoader</text></g><!--entity subscription--><g class="entity" data-qualified-name="subscription" data-source-line="9" id="ent0005"><rect fill="#F1F1F1" height="37.6094" rx="2.5" ry="2.5" style="stroke:#181818;stroke-width:0.5;" width="154.5996" x="128.5" y="254.6094"/><text fill="#000000" font-family="sans-serif" font-size="14" lengthAdjust="spacing" textLength="134.5996" x="138.5" y="279.1426">SubscriptionWorkflow</text></g><!--entity domain--><g class="entity" data-qualified-name="domain" data-source-line="10" id="ent0006"><rect fill="#F1F1F1" height="37.6094" rx="2.5" ry="2.5" style="stroke:#181818;stroke-width:0.5;" width="125.8135" x="302" y="254.6094"/><text fill="#000000" font-family="sans-serif" font-size="14" lengthAdjust="spacing" textLength="105.8135" x="312" y="279.1426">Domain Services</text></g><!--entity gateways--><g class="entity" data-qualified-name="gateways" data-source-line="11" id="ent0007"><rect fill="#F1F1F1" height="37.6094" rx="2.5" ry="2.5" style="stroke:#181818;stroke-width:0.5;" width="82.248" x="515" y="254.6094"/><text fill="#000000" font-family="sans-serif" font-size="14" lengthAdjust="spacing" textLength="62.248" x="525" y="279.1426">Gateways</text></g><!--entity persistence--><g class="entity" data-qualified-name="persistence" data-source-line="12" id="ent0008"><rect fill="#F1F1F1" height="37.6094" rx="2.5" ry="2.5" style="stroke:#181818;stroke-width:0.5;" width="155.7822" x="653" y="254.6094"/><text fill="#000000" font-family="sans-serif" font-size="14" lengthAdjust="spacing" textLength="135.7822" x="663" y="279.1426">Persistence + Monitor</text></g><!--entity bars--><g class="entity" data-qualified-name="bars" data-source-line="13" id="ent0009"><rect fill="#F1F1F1" height="37.6094" rx="2.5" ry="2.5" style="stroke:#181818;stroke-width:0.5;" width="91.5996" x="874" y="254.6094"/><text fill="#000000" font-family="sans-serif" font-size="14" lengthAdjust="spacing" textLength="71.5996" x="884" y="279.1426">BarPipeline</text></g><!--entity alerts--><g class="entity" data-qualified-name="alerts" data-source-line="14" id="ent0010"><rect fill="#F1F1F1" height="37.6094" rx="2.5" ry="2.5" style="stroke:#181818;stroke-width:0.5;" width="146.8477" x="1020.5" y="254.6094"/><text fill="#000000" font-family="sans-serif" font-size="14" lengthAdjust="spacing" textLength="126.8477" x="1030.5" y="279.1426">FeishuEventHandler</text></g><g class="link" data-entity-1="ent0002" data-entity-2="ent0003" data-link-type="dependency" id="lnk11"><polygon fill="#181818" points="556,144.4709,560,135.4709,556,139.4709,552,135.4709,556,144.4709" style="stroke:#181818;stroke-width:1;"/><path d="M556,88.7856 C556,104.9145 556,122.3535 556,138.4709" fill="none" style="stroke:#181818;stroke-width:1;"/><text fill="#000000" font-family="sans-serif" font-size="13" lengthAdjust="spacing" textLength="153.2134" x="558" y="122.1045">on_init / on_start / on_stop</text></g><g class="link" data-entity-1="ent0003" data-entity-2="ent0004" data-link-type="dependency" id="lnk12"><polygon fill="#181818" points="58.9403,254.3216,63.9382,245.8351,59.5091,249.354,55.9902,244.9249,58.9403,254.3216" style="stroke:#181818;stroke-width:1;"/><path d="M489.8813,165.6718 C367.3362,168.2142 114.482,176.3631 83,200.6094 C66.5412,213.2854 61.5499,231.5326 59.6229,248.3605" fill="none" style="stroke:#181818;stroke-width:1;"/><text fill="#000000" font-family="sans-serif" font-size="13" lengthAdjust="spacing" textLength="121.7354" x="85" y="224.1045">load TOML + imports</text></g><g class="link" data-entity-1="ent0003" data-entity-2="ent0005" data-link-type="dependency" id="lnk13"><polygon fill="#181818" points="207.3053,254.429,212.4634,246.0389,207.9683,249.4732,204.534,244.978,207.3053,254.429" style="stroke:#181818;stroke-width:1;"/><path d="M489.8294,163.9406 C406.8445,164.4369 270.7275,170.0873 232,200.6094 C215.6124,213.5248 210.3419,231.7319 208.1009,248.482" fill="none" style="stroke:#181818;stroke-width:1;"/><text fill="#000000" font-family="sans-serif" font-size="13" lengthAdjust="spacing" textLength="125.728" x="234" y="224.1045">init subscription mode</text></g><g class="link" data-entity-1="ent0003" data-entity-2="ent0006" data-link-type="dependency" id="lnk14"><polygon fill="#181818" points="363.6154,254.354,367.5178,245.3113,363.5613,249.3543,359.5182,245.3979,363.6154,254.354" style="stroke:#181818;stroke-width:1;"/><path d="M489.8649,170.5939 C446.6522,175.8781 395.4654,185.2001 380,200.6094 C365.9803,214.5783 363.3737,232.0267 363.5505,248.3544" fill="none" style="stroke:#181818;stroke-width:1;"/><text fill="#000000" font-family="sans-serif" font-size="13" lengthAdjust="spacing" textLength="126.458" x="402.9377" y="216.1045">create indicator/signal</text><text fill="#000000" font-family="sans-serif" font-size="13" lengthAdjust="spacing" textLength="168.3335" x="382" y="232.4561">selection/pricing/risk services</text></g><g class="link" data-entity-1="ent0003" data-entity-2="ent0007" data-link-type="dependency" id="lnk15"><polygon fill="#181818" points="556,254.5592,560,245.5592,556,249.5592,552,245.5592,556,254.5592" style="stroke:#181818;stroke-width:1;"/><path d="M556,182.9301 C556,202.9103 556,228.6862 556,248.5592" fill="none" style="stroke:#181818;stroke-width:1;"/><text fill="#000000" font-family="sans-serif" font-size="13" lengthAdjust="spacing" textLength="132.228" x="565.9568" y="216.1045">create market/account/</text><text fill="#000000" font-family="sans-serif" font-size="13" lengthAdjust="spacing" textLength="148.1416" x="558" y="232.4561">order/execution gateways</text></g><g class="link" data-entity-1="ent0003" data-entity-2="ent0008" data-link-type="dependency" id="lnk16"><polygon fill="#181818" points="730.3337,254.2981,733.4384,244.9514,729.8468,249.3218,725.4764,245.7303,730.3337,254.2981" style="stroke:#181818;stroke-width:1;"/><path d="M622.1189,173.5151 C657.4042,179.5305 696.1539,188.5777 709,200.6094 C723.7866,214.4584 728.1484,231.9603 729.7495,248.3266" fill="none" style="stroke:#181818;stroke-width:1;"/><text fill="#000000" font-family="sans-serif" font-size="13" lengthAdjust="spacing" textLength="100.4326" x="761.0686" y="216.1045">create repository,</text><text fill="#000000" font-family="sans-serif" font-size="13" lengthAdjust="spacing" textLength="162.5698" x="730" y="232.4561">autosave, serializer, monitor</text></g><g class="link" data-entity-1="ent0003" data-entity-2="ent0009" data-link-type="dependency" id="lnk17"><polygon fill="#181818" points="919.7775,254.4917,923.0905,245.2168,919.4021,249.5058,915.1131,245.8175,919.7775,254.4917" style="stroke:#181818;stroke-width:1;"/><path d="M622.2707,167.6837 C715.7195,172.6027 877.2144,183.4695 898,200.6094 C913.8322,213.6647 918.0692,231.804 919.327,248.5087" fill="none" style="stroke:#181818;stroke-width:1;"/><text fill="#000000" font-family="sans-serif" font-size="13" lengthAdjust="spacing" textLength="147.4434" x="919" y="224.1045">build optional bar pipeline</text></g><g class="link" data-entity-1="ent0003" data-entity-2="ent0010" data-link-type="dependency" id="lnk18"><polygon fill="#181818" points="1093.8795,254.3657,1097.2368,245.1067,1093.528,249.3781,1089.2566,245.6693,1093.8795,254.3657" style="stroke:#181818;stroke-width:1;"/><path d="M622.0726,165.1009 C753.3881,166.6667 1037.5633,173.2171 1072,200.6094 C1088.0597,213.3838 1092.2738,231.5847 1093.4577,248.3806" fill="none" style="stroke:#181818;stroke-width:1;"/><text fill="#000000" font-family="sans-serif" font-size="13" lengthAdjust="spacing" textLength="184.2534" x="1094" y="224.1045">register / unregister notifications</text></g><?plantuml-src LLBBZjim3BpxAzIzDe7lFHJeOziUikW2AT1BW8AHQOU8J1gKdDJz-jAorx5lV0o7r8mIfO3kG3NwmLlqM_HQ1xcxlVka_a89VUeLYtUTGjE22p18drniCG534Q_47IYqBbwWaZjnuse84LSTBsqdZ9oEQR0DQep0JS2YM3hkwPWK4ZR3CoSTdXn4XsEqXYn7ljsOOVSvMIE_2DVK70Ggr0pokR3Prv-ZL-eI2M_uuggn7lWgBH2x8-gDFCQChN9jZVfkZxZ3CBMRELa3Nb4ZnOJiqRrtByAKPBgnUtJM0vz1Nwd3G8mPTWRT47v3YfV--MR93-0gp2y62r8iYgoYs-y_BaAv3qxu3zbYLuvHJA1BA5snuCQXIJWR2IQc-_NpvM1NaoqVoJV8jMw6p_oRMYiLRaSc-Gpi5Kqgcwd8W-bHHceOmeaZ1lijDbrsIju-LwaKhoxE9cpftkH-4BQWLqmbU2yzf_B4elOZIloBliytBGvjY5PEFBWKEucZMSFknD0dYN33tNWAGQ1_g3jxONPpIpRwPIpddaBb94i1OQowRhPrYv-Cimd5PZn2pPgUbuGbKJsgP3pnFm00?></g></svg>