<?plantuml 1.2026.2?><svg xmlns="http://www.w3.org/2000/svg" xmlns:xlink="http://www.w3.org/1999/xlink" contentStyleType="text/css" data-diagram-type="DESCRIPTION" height="425px" preserveAspectRatio="none" style="width:761px;height:425px;background:#FFFFFF;" version="1.1" viewBox="0 0 761 425" width="761px" zoomAndPan="magnify"><title>Lifecycle Workflow - Data Flow</title><defs/><g><g class="title" data-source-line="1"><text fill="#000000" font-family="sans-serif" font-size="14" font-weight="bold" lengthAdjust="spacing" textLength="205.3652" x="274.3174" y="24.5332">Lifecycle Workflow - Data Flow</text></g><!--entity config_input--><g class="entity" data-qualified-name="config_input" data-source-line="5" id="ent0002"><rect fill="#F1F1F1" height="72.8281" rx="2.5" ry="2.5" style="stroke:#181818;stroke-width:0.5;" width="140.627" x="308" y="50.6094"/><text fill="#000000" font-family="sans-serif" font-size="14" lengthAdjust="spacing" textLength="76.2617" x="318" y="75.1426">entry.setting</text><text fill="#000000" font-family="sans-serif" font-size="14" lengthAdjust="spacing" textLength="120.627" x="318" y="92.752">strategy_full_config</text><text fill="#000000" font-family="sans-serif" font-size="14" lengthAdjust="spacing" textLength="77.0342" x="318" y="110.3613">config/*.toml</text></g><!--entity workflow--><g class="entity" data-qualified-name="workflow" data-source-line="6" id="ent0003"><rect fill="#F1F1F1" height="37.6094" rx="2.5" ry="2.5" style="stroke:#181818;stroke-width:0.5;" width="132.0273" x="312.5" y="179.6094"/><text fill="#000000" font-family="sans-serif" font-size="14" lengthAdjust="spacing" textLength="112.0273" x="322.5" y="204.1426">LifecycleWorkflow</text></g><!--entity services--><g class="entity" data-qualified-name="services" data-source-line="7" id="ent0004"><rect fill="#F1F1F1" height="55.2188" rx="2.5" ry="2.5" style="stroke:#181818;stroke-width:0.5;" width="142.5547" x="6" y="289.6094"/><text fill="#000000" font-family="sans-serif" font-size="14" lengthAdjust="spacing" textLength="109.7168" x="16" y="314.1426">Service activation</text><text fill="#000000" font-family="sans-serif" font-size="14" lengthAdjust="spacing" textLength="122.5547" x="16" y="331.752">+ strategy contracts</text></g><!--entity aggregates--><g class="entity" data-qualified-name="aggregates" data-source-line="8" id="ent0005"><rect fill="#F1F1F1" height="55.2188" rx="2.5" ry="2.5" style="stroke:#181818;stroke-width:0.5;" width="237.8818" x="167.5" y="289.6094"/><text fill="#000000" font-family="sans-serif" font-size="14" lengthAdjust="spacing" textLength="71.6064" x="177.5" y="314.1426">Aggregates</text><text fill="#000000" font-family="sans-serif" font-size="14" lengthAdjust="spacing" textLength="217.8818" x="177.5" y="331.752">Instrument / Position / Combination</text></g><!--entity infrastructure--><g class="entity" data-qualified-name="infrastructure" data-source-line="9" id="ent0006"><rect fill="#F1F1F1" height="55.2188" rx="2.5" ry="2.5" style="stroke:#181818;stroke-width:0.5;" width="169.7959" x="423.5" y="289.6094"/><text fill="#000000" font-family="sans-serif" font-size="14" lengthAdjust="spacing" textLength="149.7959" x="433.5" y="314.1426">Gateways + persistence</text><text fill="#000000" font-family="sans-serif" font-size="14" lengthAdjust="spacing" textLength="58.748" x="433.5" y="331.752">+ monitor</text></g><!--entity warmup--><g class="entity" data-qualified-name="warmup" data-source-line="10" id="ent0007"><rect fill="#F1F1F1" height="55.2188" rx="2.5" ry="2.5" style="stroke:#181818;stroke-width:0.5;" width="143.3203" x="612" y="289.6094"/><text fill="#000000" font-family="sans-serif" font-size="14" lengthAdjust="spacing" textLength="108.1377" x="622" y="314.1426">Warmup / restore</text><text fill="#000000" font-family="sans-serif" font-size="14" lengthAdjust="spacing" textLength="123.3203" x="622" y="331.752">history + OMS state</text></g><!--entity output--><g class="entity" data-qualified-name="output" data-source-line="11" id="ent0008"><rect fill="#F1F1F1" height="37.6094" rx="2.5" ry="2.5" style="stroke:#181818;stroke-width:0.5;" width="149.1719" x="322" y="381.6094"/><text fill="#000000" font-family="sans-serif" font-size="14" lengthAdjust="spacing" textLength="129.1719" x="332" y="406.1426">Ready StrategyEntry</text></g><g class="link" data-entity-1="ent0002" data-entity-2="ent0003" data-link-type="dependency" id="lnk9"><polygon fill="#181818" points="378.5,179.4057,382.5,170.4057,378.5,174.4057,374.5,170.4057,378.5,179.4057" style="stroke:#181818;stroke-width:1;"/><path d="M378.5,123.6609 C378.5,142.2703 378.5,158.268 378.5,173.4057" fill="none" style="stroke:#181818;stroke-width:1;"/><text fill="#000000" font-family="sans-serif" font-size="13" lengthAdjust="spacing" textLength="95.748" x="380.5" y="157.1045">load + normalize</text></g><g class="link" data-entity-1="ent0003" data-entity-2="ent0004" data-link-type="dependency" id="lnk10"><polygon fill="#181818" points="107.1348,289.2669,116.6028,286.5543,110.9679,286.0563,111.4659,280.4214,107.1348,289.2669" style="stroke:#181818;stroke-width:1;"/><path d="M312.1434,205.1235 C274.928,209.9472 228.324,218.9329 189.5,235.6094 C158.9172,248.7459 133.1258,267.497 111.7345,285.4142" fill="none" style="stroke:#181818;stroke-width:1;"/><text fill="#000000" font-family="sans-serif" font-size="13" lengthAdjust="spacing" textLength="125.0044" x="191.5" y="259.1045">build domain services</text></g><g class="link" data-entity-1="ent0003" data-entity-2="ent0005" data-link-type="dependency" id="lnk11"><polygon fill="#181818" points="307.1201,289.5685,315.8074,284.9283,310.1936,285.6246,309.4973,280.0108,307.1201,289.5685" style="stroke:#181818;stroke-width:1;"/><path d="M363.697,217.8835 C359.1281,223.5512 354.0914,229.8269 349.5,235.6094 C335.2641,253.5383 323.0664,269.1063 310.8083,284.8358" fill="none" style="stroke:#181818;stroke-width:1;"/><text fill="#000000" font-family="sans-serif" font-size="13" lengthAdjust="spacing" textLength="75.8608" x="351.5" y="259.1045">init or restore</text></g><g class="link" data-entity-1="ent0003" data-entity-2="ent0006" data-link-type="dependency" id="lnk12"><polygon fill="#181818" points="483.9515,289.2558,480.6743,279.9682,480.5162,285.6228,474.8615,285.4647,483.9515,289.2558" style="stroke:#181818;stroke-width:1;"/><path d="M405.3259,217.6937 C413.0074,223.1974 421.2574,229.431 428.5,235.6094 C448.137,252.3609 464.5029,268.6881 479.8291,284.8962" fill="none" style="stroke:#181818;stroke-width:1;"/><text fill="#000000" font-family="sans-serif" font-size="13" lengthAdjust="spacing" textLength="98.2744" x="470.0295" y="251.1045">create gateways,</text><text fill="#000000" font-family="sans-serif" font-size="13" lengthAdjust="spacing" textLength="103.3335" x="467.5" y="267.4561">monitor, autosave</text></g><g class="link" data-entity-1="ent0003" data-entity-2="ent0007" data-link-type="dependency" id="lnk13"><polygon fill="#181818" points="655.8673,289.5383,651.7849,280.5754,652.1253,286.222,646.4787,286.5625,655.8673,289.5383" style="stroke:#181818;stroke-width:1;"/><path d="M444.9387,203.9565 C484.4795,208.4046 534.8883,217.4036 576.5,235.6094 C606.3163,248.6545 631.0315,267.5272 651.377,285.5587" fill="none" style="stroke:#181818;stroke-width:1;"/><text fill="#000000" font-family="sans-serif" font-size="13" lengthAdjust="spacing" textLength="80.9199" x="634.5" y="259.1045">replay or sync</text></g><g class="link" data-entity-1="ent0004" data-entity-2="ent0008" data-link-type="dependency" id="lnk14"><polygon fill="#181818" points="321.8328,384.1433,313.8829,378.3296,316.946,383.0854,312.1902,386.1485,321.8328,384.1433" style="stroke:#181818;stroke-width:1;"/><path d="M149.3874,341.9961 C152.4596,342.9004 155.5068,343.7757 158.5,344.6094 C212.7328,359.7148 268.854,372.6742 315.9686,382.8738" fill="none" style="stroke:#181818;stroke-width:1;"/></g><g class="link" data-entity-1="ent0005" data-entity-2="ent0008" data-link-type="dependency" id="lnk15"><polygon fill="#181818" points="371.8781,381.3668,367.0279,372.795,367.8606,378.3902,362.2654,379.2229,371.8781,381.3668" style="stroke:#181818;stroke-width:1;"/><path d="M322.5181,344.7955 C338.6837,356.7728 352.5221,367.0257 367.0571,377.7949" fill="none" style="stroke:#181818;stroke-width:1;"/></g><g class="link" data-entity-1="ent0006" data-entity-2="ent0008" data-link-type="dependency" id="lnk16"><polygon fill="#181818" points="421.5696,381.3668,431.2004,379.3056,425.6125,378.4248,426.4933,372.837,421.5696,381.3668" style="stroke:#181818;stroke-width:1;"/><path d="M471.827,344.7955 C455.3675,356.7728 441.2204,367.0673 426.4211,377.8364" fill="none" style="stroke:#181818;stroke-width:1;"/></g><g class="link" data-entity-1="ent0007" data-entity-2="ent0008" data-link-type="dependency" id="lnk17"><polygon fill="#181818" points="468.2743,381.4861,477.9898,383.1012,473.1145,380.2322,475.9835,375.3569,468.2743,381.4861" style="stroke:#181818;stroke-width:1;"/><path d="M611.5759,341.8685 C608.5138,342.8078 605.4787,343.7252 602.5,344.6094 C558.1421,357.7761 513.7965,369.693 474.0825,379.9814" fill="none" style="stroke:#181818;stroke-width:1;"/></g><?plantuml-src NLBBRjj03BphAzWScpYvzr2Ww0i54hIe3xaOC9WLfH3PXx2aRAXVNwuio-kSH767CyFPLLPFyCWTkSbPzPpoM-VJ4JRm3HNXXzNDXo5Z7n0yJcbKa42A4HjvupXWnW3oYcqwSkoXGo_KD9cSGNeZlA6eUReNKhNpNHJDgDHF-sxqVkzIxDYwf-_3ntjDmTy02fmwUrCOjQPRhPwTpkZZybCZjvGFx0ZGAHzGESLTl8MpVX6mqgdC1782IqtmfUypzOQMNVnLZ8_1be47-9E42v-LNrDuuJYpppoupjHCFwrnn4dW5WRAmg8K7HKx8KNMbETPZbt68kDqp5JFFsCEus1ocSJGDldAfPYCyFVJrfOoWLCGCxAU_KlOJh1TrlvURcD6sasMQ9iwQDXiFgzPmYVm2LkJY2a7zFoFclMi0C-P6V1bPDz2cm9ol6HvXRuaOtYshI7bypxNoEiS3EqosHpqIuftkxZ4TWSuQX8yl6CufM2JcGPxj4L9fkYQrN41BG5KlghkEm_LoS9zwVm7?></g></svg>