<?plantuml 1.2026.2?><svg xmlns="http://www.w3.org/2000/svg" xmlns:xlink="http://www.w3.org/1999/xlink" contentStyleType="text/css" data-diagram-type="DESCRIPTION" height="315px" preserveAspectRatio="none" style="width:1426px;height:315px;background:#FFFFFF;" version="1.1" viewBox="0 0 1426 315" width="1426px" zoomAndPan="magnify"><title>Market Workflow - Architecture</title><defs/><g><g class="title" data-source-line="1"><text fill="#000000" font-family="sans-serif" font-size="14" font-weight="bold" lengthAdjust="spacing" textLength="206.9238" x="577.5381" y="24.5332">Market Workflow - Architecture</text></g><!--entity events--><g class="entity" data-qualified-name="events" data-source-line="6" id="ent0002"><rect fill="#F1F1F1" height="37.6094" rx="2.5" ry="2.5" style="stroke:#181818;stroke-width:0.5;" width="125.8066" x="585" y="50.6094"/><text fill="#000000" font-family="sans-serif" font-size="14" lengthAdjust="spacing" textLength="105.8066" x="595" y="75.1426">Tick / Bar Events</text></g><!--entity bar_pipeline--><g class="entity" data-qualified-name="bar_pipeline" data-source-line="7" id="ent0003"><rect fill="#F1F1F1" height="37.6094" rx="2.5" ry="2.5" style="stroke:#181818;stroke-width:0.5;" width="91.5996" x="6" y="263.1094"/><text fill="#000000" font-family="sans-serif" font-size="14" lengthAdjust="spacing" textLength="71.5996" x="16" y="287.6426">BarPipeline</text></g><!--entity workflow--><g class="entity" data-qualified-name="workflow" data-source-line="8" id="ent0004"><rect fill="#F1F1F1" height="37.6094" rx="2.5" ry="2.5" style="stroke:#181818;stroke-width:0.5;" width="120.3447" x="588" y="144.6094"/><text fill="#000000" font-family="sans-serif" font-size="14" lengthAdjust="spacing" textLength="100.3447" x="598" y="169.1426">MarketWorkflow</text></g><!--entity target--><g class="entity" data-qualified-name="target" data-source-line="9" id="ent0005"><rect fill="#F1F1F1" height="37.6094" rx="2.5" ry="2.5" style="stroke:#181818;stroke-width:0.5;" width="128.958" x="131.5" y="263.1094"/><text fill="#000000" font-family="sans-serif" font-size="14" lengthAdjust="spacing" textLength="108.958" x="141.5" y="287.6426">Target Aggregate</text></g><!--entity positions--><g class="entity" data-qualified-name="positions" data-source-line="10" id="ent0006"><rect fill="#F1F1F1" height="37.6094" rx="2.5" ry="2.5" style="stroke:#181818;stroke-width:0.5;" width="138.3027" x="290" y="263.1094"/><text fill="#000000" font-family="sans-serif" font-size="14" lengthAdjust="spacing" textLength="118.3027" x="300" y="287.6426">Position Aggregate</text></g><!--entity gateways--><g class="entity" data-qualified-name="gateways" data-source-line="11" id="ent0007"><rect fill="#F1F1F1" height="37.6094" rx="2.5" ry="2.5" style="stroke:#181818;stroke-width:0.5;" width="195.4648" x="446.5" y="263.1094"/><text fill="#000000" font-family="sans-serif" font-size="14" lengthAdjust="spacing" textLength="175.4648" x="456.5" y="287.6426">Market + Account Gateways</text></g><!--entity signals--><g class="entity" data-qualified-name="signals" data-source-line="12" id="ent0008"><rect fill="#F1F1F1" height="37.6094" rx="2.5" ry="2.5" style="stroke:#181818;stroke-width:0.5;" width="186.1406" x="660" y="263.1094"/><text fill="#000000" font-family="sans-serif" font-size="14" lengthAdjust="spacing" textLength="166.1406" x="670" y="287.6426">Indicator + Signal Services</text></g><!--entity support--><g class="entity" data-qualified-name="support" data-source-line="13" id="ent0009"><rect fill="#F1F1F1" height="55.2188" rx="2.5" ry="2.5" style="stroke:#181818;stroke-width:0.5;" width="139.834" x="864" y="254.6094"/><text fill="#000000" font-family="sans-serif" font-size="14" lengthAdjust="spacing" textLength="119.834" x="874" y="279.1426">Selection / Pricing /</text><text fill="#000000" font-family="sans-serif" font-size="14" lengthAdjust="spacing" textLength="77.0205" x="874" y="296.752">Risk / Sizing</text></g><!--entity observability--><g class="entity" data-qualified-name="observability" data-source-line="14" id="ent0010"><rect fill="#F1F1F1" height="37.6094" rx="2.5" ry="2.5" style="stroke:#181818;stroke-width:0.5;" width="175.2441" x="1022.5" y="263.1094"/><text fill="#000000" font-family="sans-serif" font-size="14" lengthAdjust="spacing" textLength="155.2441" x="1032.5" y="287.6426">Observability + Autosave</text></g><!--entity subscription--><g class="entity" data-qualified-name="subscription" data-source-line="15" id="ent0011"><rect fill="#F1F1F1" height="37.6094" rx="2.5" ry="2.5" style="stroke:#181818;stroke-width:0.5;" width="138.2891" x="1225" y="263.1094"/><text fill="#000000" font-family="sans-serif" font-size="14" lengthAdjust="spacing" textLength="118.2891" x="1235" y="287.6426">Subscription hooks</text></g><g class="link" data-entity-1="ent0002" data-entity-2="ent0004" data-link-type="dependency" id="lnk12"><polygon fill="#181818" points="648,144.4709,652,135.4709,648,139.4709,644,135.4709,648,144.4709" style="stroke:#181818;stroke-width:1;"/><path d="M648,88.7856 C648,104.9145 648,122.3535 648,138.4709" fill="none" style="stroke:#181818;stroke-width:1;"/><text fill="#000000" font-family="sans-serif" font-size="13" lengthAdjust="spacing" textLength="99.0044" x="650" y="122.1045">on_tick / on_bars</text></g><g class="link" data-entity-1="ent0004" data-entity-2="ent0003" data-link-type="dependency" id="lnk13"><polygon fill="#181818" points="51.3501,262.8601,55.5526,253.9529,51.4632,257.8613,47.5547,253.7719,51.3501,262.8601" style="stroke:#181818;stroke-width:1;"/><path d="M587.8914,164.4884 C448.709,164.7543 113.1506,168.7337 74,200.6094 C55.6865,215.5198 51.9108,238.0799 51.4858,256.8616" fill="none" style="stroke:#181818;stroke-width:1;"/><text fill="#000000" font-family="sans-serif" font-size="13" lengthAdjust="spacing" textLength="117.8188" x="76" y="224.1045">optional aggregation</text></g><g class="link" data-entity-1="ent0004" data-entity-2="ent0005" data-link-type="dependency" id="lnk14"><polygon fill="#181818" points="195.4121,262.9355,199.64,254.0403,195.5394,257.9371,191.6426,253.8365,195.4121,262.9355" style="stroke:#181818;stroke-width:1;"/><path d="M587.7414,165.8776 C476.0792,168.7718 245.7904,177.4961 218,200.6094 C199.8433,215.7103 196.0418,238.2187 195.5649,256.9374" fill="none" style="stroke:#181818;stroke-width:1;"/><text fill="#000000" font-family="sans-serif" font-size="13" lengthAdjust="spacing" textLength="177.0552" x="220" y="224.1045">update bars / validate universe</text></g><g class="link" data-entity-1="ent0004" data-entity-2="ent0006" data-link-type="dependency" id="lnk15"><polygon fill="#181818" points="374.2688,262.9116,383.2548,258.8802,377.6063,259.1886,377.298,253.5402,374.2688,262.9116" style="stroke:#181818;stroke-width:1;"/><path d="M587.6773,167.2896 C547.2976,171.0462 493.8943,179.9002 451,200.6094 C419.8466,215.65 395.0724,239.7053 378.2739,258.444" fill="none" style="stroke:#181818;stroke-width:1;"/><text fill="#000000" font-family="sans-serif" font-size="13" lengthAdjust="spacing" textLength="128.6416" x="453" y="224.1045">inspect open positions</text></g><g class="link" data-entity-1="ent0004" data-entity-2="ent0007" data-link-type="dependency" id="lnk16"><polygon fill="#181818" points="560.1359,263.0341,569.1134,258.9839,563.4657,259.3041,563.1455,253.6563,560.1359,263.0341" style="stroke:#181818;stroke-width:1;"/><path d="M631.75,182.8125 C612.2119,204.6989 583.6187,236.7288 564.1316,258.5581" fill="none" style="stroke:#181818;stroke-width:1;"/><text fill="#000000" font-family="sans-serif" font-size="13" lengthAdjust="spacing" textLength="102.6099" x="619.8977" y="216.1045">contracts, quotes,</text><text fill="#000000" font-family="sans-serif" font-size="13" lengthAdjust="spacing" textLength="108.4053" x="617" y="232.4561">account snapshots</text></g><g class="link" data-entity-1="ent0004" data-entity-2="ent0008" data-link-type="dependency" id="lnk17"><polygon fill="#181818" points="752.4445,263.0285,755.6952,253.7316,752.0357,258.0452,747.722,254.3857,752.4445,263.0285" style="stroke:#181818;stroke-width:1;"/><path d="M707.7641,182.6198 C716.4644,187.345 724.6216,193.2508 731,200.6094 C746.1833,218.126 750.4906,239.2122 751.9539,257.0486" fill="none" style="stroke:#181818;stroke-width:1;"/><text fill="#000000" font-family="sans-serif" font-size="13" lengthAdjust="spacing" textLength="139.8325" x="750" y="224.1045">indicator + signal stages</text></g><g class="link" data-entity-1="ent0004" data-entity-2="ent0009" data-link-type="dependency" id="lnk18"><polygon fill="#181818" points="928.0379,254.4164,929.2572,244.6433,926.5885,249.6311,921.6007,246.9623,928.0379,254.4164" style="stroke:#181818;stroke-width:1;"/><path d="M708.2215,166.9974 C771.6005,170.6082 866.1144,179.4514 895,200.6094 C912.5394,213.4565 920.8196,230.5851 926.2986,248.674" fill="none" style="stroke:#181818;stroke-width:1;"/><text fill="#000000" font-family="sans-serif" font-size="13" lengthAdjust="spacing" textLength="100.439" x="945.4009" y="216.1045">selection, pricing,</text><text fill="#000000" font-family="sans-serif" font-size="13" lengthAdjust="spacing" textLength="145.2407" x="923" y="232.4561">greeks, sizing, close plan</text></g><g class="link" data-entity-1="ent0004" data-entity-2="ent0010" data-link-type="dependency" id="lnk19"><polygon fill="#181818" points="1107.3262,263.0229,1109.4591,253.4078,1106.3332,258.1225,1101.6185,254.9966,1107.3262,263.0229" style="stroke:#181818;stroke-width:1;"/><path d="M708.2525,166.3392 C818.6754,169.9969 1044.8726,179.9341 1074,200.6094 C1094.4741,215.1423 1102.2986,238.2117 1106.1346,257.1424" fill="none" style="stroke:#181818;stroke-width:1;"/><text fill="#000000" font-family="sans-serif" font-size="13" lengthAdjust="spacing" textLength="83.8208" x="1139.9431" y="216.1045">publish traces,</text><text fill="#000000" font-family="sans-serif" font-size="13" lengthAdjust="spacing" textLength="159.707" x="1102" y="232.4561">record snapshots, autosave</text></g><g class="link" data-entity-1="ent0004" data-entity-2="ent0011" data-link-type="dependency" id="lnk20"><polygon fill="#181818" points="1293.4868,263.0803,1296.712,253.7745,1293.0643,258.0982,1288.7406,254.4505,1293.4868,263.0803" style="stroke:#181818;stroke-width:1;"/><path d="M708.0345,164.336 C854.8585,164.1935 1223.3027,167.2082 1267,200.6094 C1286.2067,215.2905 1291.3786,238.2201 1292.9798,257.1018" fill="none" style="stroke:#181818;stroke-width:1;"/><text fill="#000000" font-family="sans-serif" font-size="13" lengthAdjust="spacing" textLength="126.4199" x="1291" y="224.1045">timer / rollover refresh</text></g><?plantuml-src PLD1Zjim3Bpx5UnUcqNkUoYG0aNHGz6WAT3B0Wj6OMp2YgYASeBqzQKb9skdDukQuP0pLkRi2RvZwYd3RqdzqSi5dc6JNCUPN1uIDHzYmlQ4uF4gGmOzKSQ0ZVOS8YOyWNPua0k75exebMOtJavH0eMyorSJIjOHG-kfQUutyFIBNGzh-8m9lfojea-02bG-vpW3R3cIvq05iSVq5gV275VNkMrJe9Vfi935rDhMcxPDr6AkFNCfpc5RKSuiuG4OfxB-hmmVOUES35RvQl0BNkj6xNIOCxw50plCaeoqupQWXnsbCpkg72sr1ML7tcmS9rh3Dh4RVL-_Xf-ieuix_ck5oXrYbBHOviTUhJlksNE-ZdCEMHJFTIMPNouKXxswnB68TYBzDDkit3GrBtX-_dHt6rv0mbkkyTgN1QRD_N94pYCSqQMNUO2JrsFd1Q7cOz0X7ipEiO5QypDwBkSXy9cI_OCBrZqi8tBGQFwP5eLPYWlyBIc3EmaveSkwWZ-3PDBLQy0fNGqOjPFym9uoArhlwTOgQCQM7WarA2FeBTiLn1gjoPaLr9k-bcXNuBmeGVJuuCqYFsiMXxrdxM2Slynjpq_IuNti5U2K_-CyixnV8FE9afcSn7inT-qP7nDfzmy0?></g></svg>