<?plantuml 1.2026.2?><svg xmlns="http://www.w3.org/2000/svg" xmlns:xlink="http://www.w3.org/1999/xlink" contentStyleType="text/css" data-diagram-type="DESCRIPTION" height="786px" preserveAspectRatio="none" style="width:421px;height:786px;background:#FFFFFF;" version="1.1" viewBox="0 0 421 786" width="421px" zoomAndPan="magnify"><title>Market Workflow - Data Flow</title><defs/><g><g class="title" data-source-line="1"><text fill="#000000" font-family="sans-serif" font-size="14" font-weight="bold" lengthAdjust="spacing" textLength="190.5723" x="111.9639" y="24.5332">Market Workflow - Data Flow</text></g><!--entity input--><g class="entity" data-qualified-name="input" data-source-line="5" id="ent0002"><rect fill="#F1F1F1" height="37.6094" rx="2.5" ry="2.5" style="stroke:#181818;stroke-width:0.5;" width="138.2617" x="169.5" y="50.6094"/><text fill="#000000" font-family="sans-serif" font-size="14" lengthAdjust="spacing" textLength="118.2617" x="179.5" y="75.1426">TickData / BarData</text></g><!--entity universe--><g class="entity" data-qualified-name="universe" data-source-line="6" id="ent0003"><rect fill="#F1F1F1" height="37.6094" rx="2.5" ry="2.5" style="stroke:#181818;stroke-width:0.5;" width="187.6855" x="144.5" y="144.6094"/><text fill="#000000" font-family="sans-serif" font-size="14" lengthAdjust="spacing" textLength="167.6855" x="154.5" y="169.1426">Rollover + universe checks</text></g><!--entity instrument--><g class="entity" data-qualified-name="instrument" data-source-line="7" id="ent0004"><rect fill="#F1F1F1" height="37.6094" rx="2.5" ry="2.5" style="stroke:#181818;stroke-width:0.5;" width="132.8477" x="172" y="238.6094"/><text fill="#000000" font-family="sans-serif" font-size="14" lengthAdjust="spacing" textLength="112.8477" x="182" y="263.1426">Instrument update</text></g><!--entity chain--><g class="entity" data-qualified-name="chain" data-source-line="8" id="ent0005"><rect fill="#F1F1F1" height="37.6094" rx="2.5" ry="2.5" style="stroke:#181818;stroke-width:0.5;" width="159.3164" x="159" y="332.6094"/><text fill="#000000" font-family="sans-serif" font-size="14" lengthAdjust="spacing" textLength="139.3164" x="169" y="357.1426">Option chain snapshot</text></g><!--entity indicator--><g class="entity" data-qualified-name="indicator" data-source-line="9" id="ent0006"><rect fill="#F1F1F1" height="37.6094" rx="2.5" ry="2.5" style="stroke:#181818;stroke-width:0.5;" width="111.8203" x="182.5" y="426.6094"/><text fill="#000000" font-family="sans-serif" font-size="14" lengthAdjust="spacing" textLength="91.8203" x="192.5" y="451.1426">Indicator result</text></g><!--entity open_pipeline--><g class="entity" data-qualified-name="open_pipeline" data-source-line="10" id="ent0007"><rect fill="#F1F1F1" height="55.2188" rx="2.5" ry="2.5" style="stroke:#181818;stroke-width:0.5;" width="250.7197" x="6" y="520.6094"/><text fill="#000000" font-family="sans-serif" font-size="14" lengthAdjust="spacing" textLength="86.3994" x="16" y="545.1426">Open pipeline</text><text fill="#000000" font-family="sans-serif" font-size="14" lengthAdjust="spacing" textLength="230.7197" x="16" y="562.752">signal -&gt; selection -&gt; pricing -&gt; sizing</text></g><!--entity close_pipeline--><g class="entity" data-qualified-name="close_pipeline" data-source-line="11" id="ent0008"><rect fill="#F1F1F1" height="55.2188" rx="2.5" ry="2.5" style="stroke:#181818;stroke-width:0.5;" width="140.2373" x="275.5" y="520.6094"/><text fill="#000000" font-family="sans-serif" font-size="14" lengthAdjust="spacing" textLength="87.9443" x="285.5" y="545.1426">Close pipeline</text><text fill="#000000" font-family="sans-serif" font-size="14" lengthAdjust="spacing" textLength="120.2373" x="285.5" y="562.752">signal -&gt; close plan</text></g><!--entity traces--><g class="entity" data-qualified-name="traces" data-source-line="12" id="ent0009"><rect fill="#F1F1F1" height="37.6094" rx="2.5" ry="2.5" style="stroke:#181818;stroke-width:0.5;" width="169.4063" x="169" y="631.6094"/><text fill="#000000" font-family="sans-serif" font-size="14" lengthAdjust="spacing" textLength="149.4063" x="179" y="656.1426">DecisionTrace payloads</text></g><!--entity outputs--><g class="entity" data-qualified-name="outputs" data-source-line="13" id="ent0010"><rect fill="#F1F1F1" height="55.2188" rx="2.5" ry="2.5" style="stroke:#181818;stroke-width:0.5;" width="155.4268" x="176" y="725.6094"/><text fill="#000000" font-family="sans-serif" font-size="14" lengthAdjust="spacing" textLength="135.4268" x="186" y="750.1426">Snapshot / autosave /</text><text fill="#000000" font-family="sans-serif" font-size="14" lengthAdjust="spacing" textLength="122.165" x="186" y="767.752">subscription refresh</text></g><g class="link" data-entity-1="ent0002" data-entity-2="ent0003" data-link-type="dependency" id="lnk11"><polygon fill="#181818" points="238.5,144.4709,242.5,135.4709,238.5,139.4709,234.5,135.4709,238.5,144.4709" style="stroke:#181818;stroke-width:1;"/><path d="M238.5,88.7856 C238.5,104.9145 238.5,122.3535 238.5,138.4709" fill="none" style="stroke:#181818;stroke-width:1;"/><text fill="#000000" font-family="sans-serif" font-size="13" lengthAdjust="spacing" textLength="46.979" x="240.5" y="122.1045">on_bars</text></g><g class="link" data-entity-1="ent0003" data-entity-2="ent0004" data-link-type="dependency" id="lnk12"><polygon fill="#181818" points="238.5,238.4709,242.5,229.4709,238.5,233.4709,234.5,229.4709,238.5,238.4709" style="stroke:#181818;stroke-width:1;"/><path d="M238.5,182.7856 C238.5,198.9145 238.5,216.3535 238.5,232.4709" fill="none" style="stroke:#181818;stroke-width:1;"/><text fill="#000000" font-family="sans-serif" font-size="13" lengthAdjust="spacing" textLength="115.6099" x="240.5" y="216.1045">active contract state</text></g><g class="link" data-entity-1="ent0004" data-entity-2="ent0005" data-link-type="dependency" id="lnk13"><polygon fill="#181818" points="238.5,332.4709,242.5,323.4709,238.5,327.4709,234.5,323.4709,238.5,332.4709" style="stroke:#181818;stroke-width:1;"/><path d="M238.5,276.7856 C238.5,292.9145 238.5,310.3535 238.5,326.4709" fill="none" style="stroke:#181818;stroke-width:1;"/><text fill="#000000" font-family="sans-serif" font-size="13" lengthAdjust="spacing" textLength="159.3325" x="240.5" y="310.1045">underlying price + contracts</text></g><g class="link" data-entity-1="ent0005" data-entity-2="ent0006" data-link-type="dependency" id="lnk14"><polygon fill="#181818" points="238.5,426.4709,242.5,417.4709,238.5,421.4709,234.5,417.4709,238.5,426.4709" style="stroke:#181818;stroke-width:1;"/><path d="M238.5,370.7856 C238.5,386.9145 238.5,404.3535 238.5,420.4709" fill="none" style="stroke:#181818;stroke-width:1;"/><text fill="#000000" font-family="sans-serif" font-size="13" lengthAdjust="spacing" textLength="95.3926" x="240.5" y="404.1045">enriched context</text></g><g class="link" data-entity-1="ent0006" data-entity-2="ent0007" data-link-type="dependency" id="lnk15"><polygon fill="#181818" points="159.8712,520.4617,169.1698,517.2157,163.5157,517.0386,163.6928,511.3845,159.8712,520.4617" style="stroke:#181818;stroke-width:1;"/><path d="M218.8746,465.0426 C202.3436,480.5694 182.8559,498.8732 164.2446,516.3539" fill="none" style="stroke:#181818;stroke-width:1;"/><text fill="#000000" font-family="sans-serif" font-size="13" lengthAdjust="spacing" textLength="80.228" x="200.5" y="498.1045">open decision</text></g><g class="link" data-entity-1="ent0006" data-entity-2="ent0008" data-link-type="dependency" id="lnk16"><polygon fill="#181818" points="323.0076,520.3183,320.06,510.9209,319.7026,516.5665,314.057,516.209,323.0076,520.3183" style="stroke:#181818;stroke-width:1;"/><path d="M264.6116,464.8153 C271.9167,470.2723 279.7104,476.4508 286.5,482.6094 C299.3145,494.2329 308.4498,503.7925 319.0416,515.8161" fill="none" style="stroke:#181818;stroke-width:1;"/><text fill="#000000" font-family="sans-serif" font-size="13" lengthAdjust="spacing" textLength="81.6563" x="307.5" y="498.1045">close decision</text></g><g class="link" data-entity-1="ent0007" data-entity-2="ent0009" data-link-type="dependency" id="lnk17"><polygon fill="#181818" points="231.3946,631.3996,226.9913,622.5899,227.5354,628.2205,221.9047,628.7646,231.3946,631.3996" style="stroke:#181818;stroke-width:1;"/><path d="M163.8735,575.7777 C185.1922,593.3395 207.913,612.0561 226.7635,627.5847" fill="none" style="stroke:#181818;stroke-width:1;"/><text fill="#000000" font-family="sans-serif" font-size="13" lengthAdjust="spacing" textLength="61.4326" x="209.5" y="609.1045">open trace</text></g><g class="link" data-entity-1="ent0008" data-entity-2="ent0009" data-link-type="dependency" id="lnk18"><polygon fill="#181818" points="270.1697,631.3996,279.1971,627.462,273.5458,627.7115,273.2963,622.0602,270.1697,631.3996" style="stroke:#181818;stroke-width:1;"/><path d="M321.0872,575.7777 C305.0108,593.3395 288.4362,611.4454 274.221,626.9739" fill="none" style="stroke:#181818;stroke-width:1;"/><text fill="#000000" font-family="sans-serif" font-size="13" lengthAdjust="spacing" textLength="62.8608" x="304.5" y="609.1045">close trace</text></g><g class="link" data-entity-1="ent0009" data-entity-2="ent0010" data-link-type="dependency" id="lnk19"><polygon fill="#181818" points="253.5,725.4617,257.5,716.4617,253.5,720.4617,249.5,716.4617,253.5,725.4617" style="stroke:#181818;stroke-width:1;"/><path d="M253.5,670.0426 C253.5,685.5694 253.5,701.9809 253.5,719.4617" fill="none" style="stroke:#181818;stroke-width:1;"/><text fill="#000000" font-family="sans-serif" font-size="13" lengthAdjust="spacing" textLength="156.8062" x="255.5" y="703.1045">journal / monitor / snapshot</text></g><?plantuml-src RP8nRzmm38Lt_GesQt2u_OOEQL2WGr6W3P0bGC38lBDYMJ94AidrruUIx8iTP9EeZu_qUnOddk0tfe44xcCQZZw-mWvkKH1-wjbycnAUHWIFvvW5U2J1W8O75oPCE0BtsCLN5qvmHCzaJ2Aho4brh-wS7QhK7cumbTCL88EsPbbpVwFtyOKIN4CEJWzCO7ko0rT-gQrRVWMMb4SA0ddgK6XMNgfhziyaBWPLH1U00qxSHwbyBMrbEsTHOe94dBtCgdDnAqe19ZUHTu4U0hjJG0-xxy3abIe3zJ8bPuitfUx-wwaAHkrzN7hNeZzyr4__IjMs5u-XBLwkNqhSadMiq-yIMct0iu_ODH-bb7WD_vlDq80mIsHy8TZhsFp4DhbcMwAZUj6tnRDeT6nCZH1skjWbi0F4yFY4YSsbLDu_8b42rHWTOMCek-Zl99gSMI6be-LqKEMEaZyN-ugDf7_7qiYcGMt04ja1A2ZOKrT1UXFpyLZGZUzbuP9XDnlsYTqwh71Bu49ljKf7itUHhJVpIMM3DS76pSMwPFDOWUUOKub_3sCChYosl_o-xm00?></g></svg>