<?plantuml 1.2026.2?><svg xmlns="http://www.w3.org/2000/svg" xmlns:xlink="http://www.w3.org/1999/xlink" contentStyleType="text/css" data-diagram-type="DESCRIPTION" height="282px" preserveAspectRatio="none" style="width:660px;height:282px;background:#FFFFFF;" version="1.1" viewBox="0 0 660 282" width="660px" zoomAndPan="magnify"><title>State Workflow - Architecture</title><defs/><g><g class="title" data-source-line="1"><text fill="#000000" font-family="sans-serif" font-size="14" font-weight="bold" lengthAdjust="spacing" textLength="196.0273" x="208.4863" y="24.5332">State Workflow - Architecture</text></g><!--entity entry--><g class="entity" data-qualified-name="entry" data-source-line="6" id="ent0002"><rect fill="#F1F1F1" height="37.6094" rx="2.5" ry="2.5" style="stroke:#181818;stroke-width:0.5;" width="104.8135" x="255" y="50.6094"/><text fill="#000000" font-family="sans-serif" font-size="14" lengthAdjust="spacing" textLength="84.8135" x="265" y="75.1426">StrategyEntry</text></g><!--entity workflow--><g class="entity" data-qualified-name="workflow" data-source-line="7" id="ent0003"><rect fill="#F1F1F1" height="37.6094" rx="2.5" ry="2.5" style="stroke:#181818;stroke-width:0.5;" width="110.248" x="252.5" y="144.6094"/><text fill="#000000" font-family="sans-serif" font-size="14" lengthAdjust="spacing" textLength="90.248" x="262.5" y="169.1426">StateWorkflow</text></g><!--entity target--><g class="entity" data-qualified-name="target" data-source-line="8" id="ent0004"><rect fill="#F1F1F1" height="37.6094" rx="2.5" ry="2.5" style="stroke:#181818;stroke-width:0.5;" width="128.958" x="6" y="238.6094"/><text fill="#000000" font-family="sans-serif" font-size="14" lengthAdjust="spacing" textLength="108.958" x="16" y="263.1426">Target Aggregate</text></g><!--entity positions--><g class="entity" data-qualified-name="positions" data-source-line="9" id="ent0005"><rect fill="#F1F1F1" height="37.6094" rx="2.5" ry="2.5" style="stroke:#181818;stroke-width:0.5;" width="138.3027" x="153.5" y="238.6094"/><text fill="#000000" font-family="sans-serif" font-size="14" lengthAdjust="spacing" textLength="118.3027" x="163.5" y="263.1426">Position Aggregate</text></g><!--entity combinations--><g class="entity" data-qualified-name="combinations" data-source-line="10" id="ent0006"><rect fill="#F1F1F1" height="37.6094" rx="2.5" ry="2.5" style="stroke:#181818;stroke-width:0.5;" width="167.0957" x="310" y="238.6094"/><text fill="#000000" font-family="sans-serif" font-size="14" lengthAdjust="spacing" textLength="147.0957" x="320" y="263.1426">Combination Aggregate</text></g><!--entity monitor--><g class="entity" data-qualified-name="monitor" data-source-line="11" id="ent0007"><rect fill="#F1F1F1" height="37.6094" rx="2.5" ry="2.5" style="stroke:#181818;stroke-width:0.5;" width="118.8203" x="495" y="238.6094"/><text fill="#000000" font-family="sans-serif" font-size="14" lengthAdjust="spacing" textLength="98.8203" x="505" y="263.1426">StrategyMonitor</text></g><g class="link" data-entity-1="ent0002" data-entity-2="ent0003" data-link-type="dependency" id="lnk8"><polygon fill="#181818" points="307.5,144.4709,311.5,135.4709,307.5,139.4709,303.5,135.4709,307.5,144.4709" style="stroke:#181818;stroke-width:1;"/><path d="M307.5,88.7856 C307.5,104.9145 307.5,122.3535 307.5,138.4709" fill="none" style="stroke:#181818;stroke-width:1;"/><text fill="#000000" font-family="sans-serif" font-size="13" lengthAdjust="spacing" textLength="140.188" x="309.5" y="122.1045">create / record snapshot</text></g><g class="link" data-entity-1="ent0003" data-entity-2="ent0004" data-link-type="dependency" id="lnk9"><polygon fill="#181818" points="98.4231,238.4364,108.182,237.1083,102.6766,235.8081,103.9768,230.3027,98.4231,238.4364" style="stroke:#181818;stroke-width:1;"/><path d="M252.4665,175.7064 C227.034,181.6815 196.7243,190.0216 170.5,200.6094 C145.0377,210.8895 123.0723,223.2054 103.5273,235.2825" fill="none" style="stroke:#181818;stroke-width:1;"/><text fill="#000000" font-family="sans-serif" font-size="13" lengthAdjust="spacing" textLength="79.4917" x="172.5" y="216.1045">to_snapshot()</text></g><g class="link" data-entity-1="ent0003" data-entity-2="ent0005" data-link-type="dependency" id="lnk10"><polygon fill="#181818" points="239.2584,238.4709,248.3039,234.5749,242.6514,234.7984,242.4279,229.146,239.2584,238.4709" style="stroke:#181818;stroke-width:1;"/><path d="M290.7067,182.7856 C275.8051,198.9145 258.2212,217.9465 243.33,234.0639" fill="none" style="stroke:#181818;stroke-width:1;"/><text fill="#000000" font-family="sans-serif" font-size="13" lengthAdjust="spacing" textLength="79.4917" x="275.5" y="216.1045">to_snapshot()</text></g><g class="link" data-entity-1="ent0003" data-entity-2="ent0006" data-link-type="dependency" id="lnk11"><polygon fill="#181818" points="385.3366,238.3515,384.9056,228.5121,383.1079,233.8757,377.7443,232.078,385.3366,238.3515" style="stroke:#181818;stroke-width:1;"/><path d="M339.0228,182.674 C346.5805,187.8717 354.2606,193.9562 360.5,200.6094 C370.9213,211.7217 376.854,221.3161 382.6622,232.9806" fill="none" style="stroke:#181818;stroke-width:1;"/><text fill="#000000" font-family="sans-serif" font-size="13" lengthAdjust="spacing" textLength="128.6416" x="377.5" y="216.1045">optional to_snapshot()</text></g><g class="link" data-entity-1="ent0003" data-entity-2="ent0007" data-link-type="dependency" id="lnk12"><polygon fill="#181818" points="545.3664,238.5558,544.2934,228.7656,542.85,234.2352,537.3804,232.7918,545.3664,238.5558" style="stroke:#181818;stroke-width:1;"/><path d="M362.6413,169.8107 C414.2811,175.4837 487.0555,185.7793 511.5,200.6094 C526.3815,209.6377 534.9643,220.6954 542.3467,233.3711" fill="none" style="stroke:#181818;stroke-width:1;"/><text fill="#000000" font-family="sans-serif" font-size="13" lengthAdjust="spacing" textLength="116.3335" x="535.5" y="216.1045">record_snapshot(...)</text></g><?plantuml-src VT1DQyCm30RWkt-5rjDwI7RVOL36ZeD21ZiEBLKTqzWoiah8lv_pqJGTfJV5UXJhjJfj2If59VXcEHrRxg20dTIDKwhrB6IUeg3r22tsV5P8dXG3cdHo8QAWXzJWWJiNB1onJRJgrEmZ1mfQQP_laVn73BObOvOER2gLVBtjFu9Alm5CG4DrIxAux3UIRlvOgoyKImexQuLi7XYXZeThjkVar77u1-DydDRsdVsl2tY7rzTEkfVcauDJbj7wgJPc30P5yRRi3wzG2mtF_p8y3yi1Ki2O6bQpc65Wof6vyiz5F6zlpHBXCLkldYN7eSBsqSYS8EjfoIiiotBx1m00?></g></svg>