<?plantuml 1.2026.2?><svg xmlns="http://www.w3.org/2000/svg" xmlns:xlink="http://www.w3.org/1999/xlink" contentStyleType="text/css" data-diagram-type="DESCRIPTION" height="485px" preserveAspectRatio="none" style="width:590px;height:485px;background:#FFFFFF;" version="1.1" viewBox="0 0 590 485" width="590px" zoomAndPan="magnify"><title>Subscription Workflow - Data Flow</title><defs/><g><g class="title" data-source-line="1"><text fill="#000000" font-family="sans-serif" font-size="14" font-weight="bold" lengthAdjust="spacing" textLength="231" x="176" y="24.5332">Subscription Workflow - Data Flow</text></g><!--entity config--><g class="entity" data-qualified-name="config" data-source-line="5" id="ent0002"><rect fill="#F1F1F1" height="37.6094" rx="2.5" ry="2.5" style="stroke:#181818;stroke-width:0.5;" width="139.8477" x="6" y="59.1094"/><text fill="#000000" font-family="sans-serif" font-size="14" lengthAdjust="spacing" textLength="119.8477" x="16" y="83.6426">subscription_config</text></g><!--entity active_contracts--><g class="entity" data-qualified-name="active_contracts" data-source-line="6" id="ent0003"><rect fill="#F1F1F1" height="55.2188" rx="2.5" ry="2.5" style="stroke:#181818;stroke-width:0.5;" width="118.8135" x="164.5" y="50.6094"/><text fill="#000000" font-family="sans-serif" font-size="14" lengthAdjust="spacing" textLength="98.8135" x="174.5" y="75.1426">Active contracts</text><text fill="#000000" font-family="sans-serif" font-size="14" lengthAdjust="spacing" textLength="65.3721" x="174.5" y="92.752">by product</text></g><!--entity live_symbols--><g class="entity" data-qualified-name="live_symbols" data-source-line="7" id="ent0004"><rect fill="#F1F1F1" height="55.2188" rx="2.5" ry="2.5" style="stroke:#181818;stroke-width:0.5;" width="135.5889" x="302" y="50.6094"/><text fill="#000000" font-family="sans-serif" font-size="14" lengthAdjust="spacing" textLength="115.5889" x="312" y="75.1426">Position + pending</text><text fill="#000000" font-family="sans-serif" font-size="14" lengthAdjust="spacing" textLength="87.917" x="312" y="92.752">order symbols</text></g><!--entity temp_symbols--><g class="entity" data-qualified-name="temp_symbols" data-source-line="8" id="ent0005"><rect fill="#F1F1F1" height="55.2188" rx="2.5" ry="2.5" style="stroke:#181818;stroke-width:0.5;" width="128.1514" x="456" y="50.6094"/><text fill="#000000" font-family="sans-serif" font-size="14" lengthAdjust="spacing" textLength="108.1514" x="466" y="75.1426">Temporary signal</text><text fill="#000000" font-family="sans-serif" font-size="14" lengthAdjust="spacing" textLength="89.4482" x="466" y="92.752">symbols (TTL)</text></g><!--entity context--><g class="entity" data-qualified-name="context" data-source-line="9" id="ent0006"><rect fill="#F1F1F1" height="37.6094" rx="2.5" ry="2.5" style="stroke:#181818;stroke-width:0.5;" width="197.4199" x="198.5" y="142.6094"/><text fill="#000000" font-family="sans-serif" font-size="14" lengthAdjust="spacing" textLength="177.4199" x="208.5" y="167.1426">SubscriptionRuntimeContext</text></g><!--entity engine--><g class="entity" data-qualified-name="engine" data-source-line="10" id="ent0007"><rect fill="#F1F1F1" height="37.6094" rx="2.5" ry="2.5" style="stroke:#181818;stroke-width:0.5;" width="175.6543" x="209" y="236.6094"/><text fill="#000000" font-family="sans-serif" font-size="14" lengthAdjust="spacing" textLength="155.6543" x="219" y="261.1426">SubscriptionModeEngine</text></g><!--entity target_symbols--><g class="entity" data-qualified-name="target_symbols" data-source-line="11" id="ent0008"><rect fill="#F1F1F1" height="37.6094" rx="2.5" ry="2.5" style="stroke:#181818;stroke-width:0.5;" width="115.6963" x="239" y="330.6094"/><text fill="#000000" font-family="sans-serif" font-size="14" lengthAdjust="spacing" textLength="95.6963" x="249" y="355.1426">Target symbols</text></g><!--entity gateway--><g class="entity" data-qualified-name="gateway" data-source-line="12" id="ent0009"><rect fill="#F1F1F1" height="55.2188" rx="2.5" ry="2.5" style="stroke:#181818;stroke-width:0.5;" width="146.834" x="223.5" y="424.6094"/><text fill="#000000" font-family="sans-serif" font-size="14" lengthAdjust="spacing" textLength="126.834" x="233.5" y="449.1426">Gateway subscribe /</text><text fill="#000000" font-family="sans-serif" font-size="14" lengthAdjust="spacing" textLength="107.3857" x="233.5" y="466.752">unsubscribe calls</text></g><g class="link" data-entity-1="ent0002" data-entity-2="ent0006" data-link-type="dependency" id="lnk10"><polygon fill="#181818" points="248.09,142.5724,241.0299,135.7055,243.3989,140.8424,238.2619,143.2114,248.09,142.5724" style="stroke:#181818;stroke-width:1;"/><path d="M125.0471,97.1969 C161.6705,110.7028 205.8702,127.0027 242.4606,140.4964" fill="none" style="stroke:#181818;stroke-width:1;"/></g><g class="link" data-entity-1="ent0003" data-entity-2="ent0006" data-link-type="dependency" id="lnk11"><polygon fill="#181818" points="280.4352,142.1158,277.4099,132.743,277.0992,138.3914,271.4509,138.0806,280.4352,142.1158" style="stroke:#181818;stroke-width:1;"/><path d="M247.9029,105.7955 C258.5479,117.6799 266.819,126.9141 276.432,137.6465" fill="none" style="stroke:#181818;stroke-width:1;"/></g><g class="link" data-entity-1="ent0004" data-entity-2="ent0006" data-link-type="dependency" id="lnk12"><polygon fill="#181818" points="313.5648,142.1158,322.5491,138.0806,316.9008,138.3914,316.5901,132.743,313.5648,142.1158" style="stroke:#181818;stroke-width:1;"/><path d="M346.0971,105.7955 C335.4521,117.6799 327.181,126.9141 317.568,137.6465" fill="none" style="stroke:#181818;stroke-width:1;"/></g><g class="link" data-entity-1="ent0005" data-entity-2="ent0006" data-link-type="dependency" id="lnk13"><polygon fill="#181818" points="346.2516,142.6093,356.0778,143.2769,350.9478,140.893,353.3317,135.763,346.2516,142.6093" style="stroke:#181818;stroke-width:1;"/><path d="M455.7983,102.5732 C420.929,115.3169 384.1194,128.7698 351.887,140.5498" fill="none" style="stroke:#181818;stroke-width:1;"/></g><g class="link" data-entity-1="ent0006" data-entity-2="ent0007" data-link-type="dependency" id="lnk14"><polygon fill="#181818" points="297,236.4709,301,227.4709,297,231.4709,293,227.4709,297,236.4709" style="stroke:#181818;stroke-width:1;"/><path d="M297,180.7856 C297,196.9145 297,214.3535 297,230.4709" fill="none" style="stroke:#181818;stroke-width:1;"/><text fill="#000000" font-family="sans-serif" font-size="13" lengthAdjust="spacing" textLength="50.5654" x="299" y="214.1045">resolve()</text></g><g class="link" data-entity-1="ent0007" data-entity-2="ent0008" data-link-type="dependency" id="lnk15"><polygon fill="#181818" points="297,330.4709,301,321.4709,297,325.4709,293,321.4709,297,330.4709" style="stroke:#181818;stroke-width:1;"/><path d="M297,274.7856 C297,290.9145 297,308.3535 297,324.4709" fill="none" style="stroke:#181818;stroke-width:1;"/><text fill="#000000" font-family="sans-serif" font-size="13" lengthAdjust="spacing" textLength="139.458" x="299" y="308.1045">decision.target_symbols</text></g><g class="link" data-entity-1="ent0008" data-entity-2="ent0009" data-link-type="dependency" id="lnk16"><polygon fill="#181818" points="297,424.4617,301,415.4617,297,419.4617,293,415.4617,297,424.4617" style="stroke:#181818;stroke-width:1;"/><path d="M297,369.0426 C297,384.5694 297,400.9809 297,418.4617" fill="none" style="stroke:#181818;stroke-width:1;"/><text fill="#000000" font-family="sans-serif" font-size="13" lengthAdjust="spacing" textLength="175.5762" x="299" y="402.1045">reconcile current subscriptions</text></g><?plantuml-src TL9DJyCm3BttLvYTDg71dGCIuki24e99N2fDNkg5QAbJ9Uv6_prfMaOwZLDT-xqNlvU84KlmqMw2ygOHunW-dTzjhJl04XvG49vYNLmq7dMDOB5phK2eIP2n23l33Ngi8NnXvGw6DMpH1YeAJof2T5IVXKn-hHnlZPu11XZA77cdnEof7uX79Q7aJGUDTrMh954m0TP7G4v-Sy4a1vVG45TnbvAThyX3wEgDio4fs9u_DdBsYkh6UVGT1ACPRSaZ2EQhrSiYSILYpd7p_DvR5bFJVToGlkNNPr__ntXr5JsoDam9JQcSh8PUaqnSI6gTs-KPXGuONGmdR0YkIsxvxrUX7KNq02sAuI9WkRmzxdeQz6IOPpWPv05D1kCtzGQ3S0EUWhDxcY-AiTLFfyuYgY9bGepfwiJp2R3dZeQIT3nHcHY8Qhqd5iWVOVW1?></g></svg>