<?plantuml 1.2026.2?><svg xmlns="http://www.w3.org/2000/svg" xmlns:xlink="http://www.w3.org/1999/xlink" contentStyleType="text/css" data-diagram-type="STATE" height="1077px" preserveAspectRatio="none" style="width:575px;height:1077px;background:#FFFFFF;" version="1.1" viewBox="0 0 575 1077" width="575px" zoomAndPan="magnify"><title>Subscription Workflow - State</title><defs/><g><g class="title" data-source-line="1"><text fill="#000000" font-family="sans-serif" font-size="14" font-weight="bold" lengthAdjust="spacing" textLength="199.1172" x="181.2527" y="24.5332">Subscription Workflow - State</text></g><g class="start_entity" data-qualified-name=".start." data-source-line="4" id="ent0002"><ellipse cx="274" cy="54.6094" fill="#222222" rx="10" ry="10" style="stroke:#222222;stroke-width:1;"/></g><g class="entity" data-qualified-name="Disabled" id="ent0003"><rect fill="#F1F1F1" height="50" rx="12.5" ry="12.5" style="stroke:#181818;stroke-width:0.5;" width="74.4756" x="237" y="125.6094"/><line style="stroke:#181818;stroke-width:0.5;" x1="237" x2="311.4756" y1="153.2188" y2="153.2188"/><text fill="#000000" font-family="sans-serif" font-size="14" lengthAdjust="spacing" textLength="54.4756" x="247" y="145.1426">Disabled</text></g><g class="entity" data-qualified-name="Enabled" id="ent0005"><rect fill="#F1F1F1" height="50" rx="12.5" ry="12.5" style="stroke:#181818;stroke-width:0.5;" width="71.3789" x="238.5" y="253.6094"/><line style="stroke:#181818;stroke-width:0.5;" x1="238.5" x2="309.8789" y1="281.2188" y2="281.2188"/><text fill="#000000" font-family="sans-serif" font-size="14" lengthAdjust="spacing" textLength="51.3789" x="248.5" y="273.1426">Enabled</text></g><g class="entity" data-qualified-name="Candidate" id="ent0007"><rect fill="#F1F1F1" height="50" rx="12.5" ry="12.5" style="stroke:#181818;stroke-width:0.5;" width="83.8271" x="232" y="509.6094"/><line style="stroke:#181818;stroke-width:0.5;" x1="232" x2="315.8271" y1="537.2188" y2="537.2188"/><text fill="#000000" font-family="sans-serif" font-size="14" lengthAdjust="spacing" textLength="63.8271" x="242" y="529.1426">Candidate</text></g><g class="entity" data-qualified-name="Subscribed" id="ent0009"><rect fill="#F1F1F1" height="50" rx="12.5" ry="12.5" style="stroke:#181818;stroke-width:0.5;" width="90.041" x="141" y="637.6094"/><line style="stroke:#181818;stroke-width:0.5;" x1="141" x2="231.041" y1="665.2188" y2="665.2188"/><text fill="#000000" font-family="sans-serif" font-size="14" lengthAdjust="spacing" textLength="70.041" x="151" y="657.1426">Subscribed</text></g><g class="entity" data-qualified-name="Protected" id="ent0011"><rect fill="#F1F1F1" height="50" rx="12.5" ry="12.5" style="stroke:#181818;stroke-width:0.5;" width="79.9238" x="7" y="765.6094"/><line style="stroke:#181818;stroke-width:0.5;" x1="7" x2="86.9238" y1="793.2188" y2="793.2188"/><text fill="#000000" font-family="sans-serif" font-size="14" lengthAdjust="spacing" textLength="59.9238" x="17" y="785.1426">Protected</text></g><g class="entity" data-qualified-name="Stale" id="ent0013"><rect fill="#F1F1F1" height="50" rx="12.5" ry="12.5" style="stroke:#181818;stroke-width:0.5;" width="51.9102" x="103" y="893.6094"/><line style="stroke:#181818;stroke-width:0.5;" x1="103" x2="154.9102" y1="921.2188" y2="921.2188"/><text fill="#000000" font-family="sans-serif" font-size="14" lengthAdjust="spacing" textLength="31.9102" x="113" y="913.1426">Stale</text></g><g class="entity" data-qualified-name="Unsubscribed" id="ent0016"><rect fill="#F1F1F1" height="50" rx="12.5" ry="12.5" style="stroke:#181818;stroke-width:0.5;" width="105.5996" x="192" y="1021.6094"/><line style="stroke:#181818;stroke-width:0.5;" x1="192" x2="297.5996" y1="1049.2188" y2="1049.2188"/><text fill="#000000" font-family="sans-serif" font-size="14" lengthAdjust="spacing" textLength="85.5996" x="202" y="1041.1426">Unsubscribed</text></g><g class="entity" data-qualified-name="TempTracked" id="ent0019"><rect fill="#F1F1F1" height="50" rx="12.5" ry="12.5" style="stroke:#181818;stroke-width:0.5;" width="106.3584" x="420" y="381.6094"/><line style="stroke:#181818;stroke-width:0.5;" x1="420" x2="526.3584" y1="409.2188" y2="409.2188"/><text fill="#000000" font-family="sans-serif" font-size="14" lengthAdjust="spacing" textLength="86.3584" x="430" y="401.1426">TempTracked</text></g><g class="entity" data-qualified-name="Expired" id="ent0022"><rect fill="#F1F1F1" height="50" rx="12.5" ry="12.5" style="stroke:#181818;stroke-width:0.5;" width="67.4688" x="465.5" y="509.6094"/><line style="stroke:#181818;stroke-width:0.5;" x1="465.5" x2="532.9688" y1="537.2188" y2="537.2188"/><text fill="#000000" font-family="sans-serif" font-size="14" lengthAdjust="spacing" textLength="47.4688" x="475.5" y="529.1426">Expired</text></g><g class="end_entity" data-qualified-name=".end." data-source-line="16" id="ent0024"><ellipse cx="499" cy="662.6094" fill="none" rx="11" ry="11" style="stroke:#222222;stroke-width:1;"/><ellipse cx="499" cy="662.6094" fill="#222222" rx="6" ry="6" style="stroke:#222222;stroke-width:1;"/></g><!--link *start* to Disabled--><g class="link" data-entity-1="ent0002" data-entity-2="ent0003" data-link-type="dependency" data-source-line="4" id="lnk4"><path d="M274,64.6194 C274,78.4994 274,99.5794 274,119.4494" fill="none" id="*start*-to-Disabled" style="stroke:#181818;stroke-width:1;"/><polygon fill="#181818" points="274,125.4494,278,116.4494,274,120.4494,270,116.4494,274,125.4494" style="stroke:#181818;stroke-width:1;"/></g><!--link Disabled to Enabled--><g class="link" data-entity-1="ent0003" data-entity-2="ent0005" data-link-type="dependency" data-source-line="5" id="lnk6"><path d="M274,175.8994 C274,198.2194 274,225.0994 274,247.3894" fill="none" id="Disabled-to-Enabled" style="stroke:#181818;stroke-width:1;"/><polygon fill="#181818" points="274,253.3894,278,244.3894,274,248.3894,270,244.3894,274,253.3894" style="stroke:#181818;stroke-width:1;"/><text fill="#000000" font-family="sans-serif" font-size="13" lengthAdjust="spacing" textLength="139.8389" x="275" y="220.1045">init config(enabled=true)</text></g><!--link Enabled to Candidate--><g class="link" data-entity-1="ent0005" data-entity-2="ent0007" data-link-type="dependency" data-source-line="6" id="lnk8"><path d="M270.34,303.8594 C267.42,324.4794 263.57,354.9094 262,381.6094 C260.7,403.7894 260.7,409.4294 262,431.6094 C263.57,458.3094 266.5787,482.7986 269.4987,503.4186" fill="none" id="Enabled-to-Candidate" style="stroke:#181818;stroke-width:1;"/><polygon fill="#181818" points="270.34,509.3594,273.0386,499.8874,269.6389,504.4088,265.1176,501.0091,270.34,509.3594" style="stroke:#181818;stroke-width:1;"/><text fill="#000000" font-family="sans-serif" font-size="13" lengthAdjust="spacing" textLength="138.728" x="263" y="412.1045">symbol enters target set</text></g><!--link Candidate to Subscribed--><g class="link" data-entity-1="ent0007" data-entity-2="ent0009" data-link-type="dependency" data-source-line="7" id="lnk10"><path d="M251.74,559.8694 C243.87,568.9194 235.2,579.4594 228,589.6094 C217.12,604.9594 209.3455,618.0188 201.4855,632.3488" fill="none" id="Candidate-to-Subscribed" style="stroke:#181818;stroke-width:1;"/><polygon fill="#181818" points="198.6,637.6094,206.4353,631.6421,201.0045,633.2255,199.4211,627.7948,198.6,637.6094" style="stroke:#181818;stroke-width:1;"/><text fill="#000000" font-family="sans-serif" font-size="13" lengthAdjust="spacing" textLength="105.4727" x="229" y="604.1045">subscribe(symbol)</text></g><!--link Subscribed to Protected--><g class="link" data-entity-1="ent0009" data-entity-2="ent0011" data-link-type="dependency" data-source-line="8" id="lnk12"><path d="M140.85,674.3394 C116.13,682.3994 86.78,695.8794 68,717.6094 C56.51,730.9094 52.2026,744.2692 49.8526,759.5392" fill="none" id="Subscribed-to-Protected" style="stroke:#181818;stroke-width:1;"/><polygon fill="#181818" points="48.94,765.4694,54.2624,757.1825,49.7005,760.5276,46.3555,755.9657,48.94,765.4694" style="stroke:#181818;stroke-width:1;"/><text fill="#000000" font-family="sans-serif" font-size="13" lengthAdjust="spacing" textLength="90.3145" x="69" y="732.1045">still in target set</text></g><!--link Protected to Stale--><g class="link" data-entity-1="ent0011" data-entity-2="ent0013" data-link-type="dependency" data-source-line="9" id="lnk14"><path d="M27.91,815.7494 C18.87,830.2894 11.85,848.7994 21,863.6094 C38.74,892.3194 71.0657,904.8379 96.9257,911.2379" fill="none" id="Protected-to-Stale" style="stroke:#181818;stroke-width:1;"/><polygon fill="#181818" points="102.75,912.6794,94.9745,906.6344,97.8964,911.4782,93.0526,914.4001,102.75,912.6794" style="stroke:#181818;stroke-width:1;"/><text fill="#000000" font-family="sans-serif" font-size="13" lengthAdjust="spacing" textLength="137.998" x="22" y="860.1045">removed from target set</text></g><!--link Stale to Subscribed--><g class="link" data-entity-1="ent0013" data-entity-2="ent0009" data-link-type="dependency" data-source-line="10" id="lnk15"><path d="M148.16,893.3494 C154.21,884.4594 160.29,874.0294 164,863.6094 C185.57,803.0594 187.5968,732.2286 186.9768,693.7986" fill="none" id="Stale-to-Subscribed" style="stroke:#181818;stroke-width:1;"/><polygon fill="#181818" points="186.88,687.7994,183.0257,696.8627,186.9607,692.7987,191.0247,696.7337,186.88,687.7994" style="stroke:#181818;stroke-width:1;"/><text fill="#000000" font-family="sans-serif" font-size="13" lengthAdjust="spacing" textLength="103.3271" x="185" y="796.1045">symbol reappears</text></g><!--link Stale to Unsubscribed--><g class="link" data-entity-1="ent0013" data-entity-2="ent0016" data-link-type="dependency" data-source-line="11" id="lnk17"><path d="M121.35,943.8094 C118.15,958.7394 116.99,977.6194 126,991.6094 C140.62,1014.2994 161.6475,1025.7657 186.0775,1033.4657" fill="none" id="Stale-to-Unsubscribed" style="stroke:#181818;stroke-width:1;"/><polygon fill="#181818" points="191.8,1035.2694,184.4187,1028.7489,187.0313,1033.7663,182.0138,1036.3789,191.8,1035.2694" style="stroke:#181818;stroke-width:1;"/><text fill="#000000" font-family="sans-serif" font-size="13" lengthAdjust="spacing" textLength="207.0098" x="127" y="988.1045">TTL elapsed + unsubscribe(symbol)</text></g><!--link Unsubscribed to Candidate--><g class="link" data-entity-1="ent0016" data-entity-2="ent0007" data-link-type="dependency" data-source-line="12" id="lnk18"><path d="M298.02,1024.1894 C313.03,1015.9294 328.21,1005.1494 339,991.6094 C359.86,965.4394 361,953.0694 361,919.6094 C361,661.6094 361,661.6094 361,661.6094 C361,628.1494 357.53,617.4694 339,589.6094 C331.52,578.3694 325.7003,572.0062 315.3103,563.6262" fill="none" id="Unsubscribed-to-Candidate" style="stroke:#181818;stroke-width:1;"/><polygon fill="#181818" points="310.64,559.8594,315.1342,568.6231,314.5319,562.9984,320.1566,562.396,310.64,559.8594" style="stroke:#181818;stroke-width:1;"/><text fill="#000000" font-family="sans-serif" font-size="13" lengthAdjust="spacing" textLength="85.249" x="362" y="796.1045">symbol returns</text></g><!--link Enabled to TempTracked--><g class="link" data-entity-1="ent0005" data-entity-2="ent0019" data-link-type="dependency" data-source-line="13" id="lnk20"><path d="M309.58,302.1394 C344.9,324.4994 393.8105,355.4699 429.9505,378.3499" fill="none" id="Enabled-to-TempTracked" style="stroke:#181818;stroke-width:1;"/><polygon fill="#181818" points="435.02,381.5594,429.5554,373.3656,430.7954,378.8848,425.2762,380.1249,435.02,381.5594" style="stroke:#181818;stroke-width:1;"/><text fill="#000000" font-family="sans-serif" font-size="13" lengthAdjust="spacing" textLength="180.6226" x="387" y="348.1045">signal-driven temporary symbol</text></g><!--link TempTracked to Candidate--><g class="link" data-entity-1="ent0019" data-entity-2="ent0007" data-link-type="dependency" data-source-line="14" id="lnk21"><path d="M419.83,424.6394 C379.34,437.9194 329.2,455.1594 321,461.6094 C304.93,474.2594 295.3338,488.6484 287.3438,504.2584" fill="none" id="TempTracked-to-Candidate" style="stroke:#181818;stroke-width:1;"/><polygon fill="#181818" points="284.61,509.5994,292.2714,503.4104,286.8882,505.1485,285.15,499.7653,284.61,509.5994" style="stroke:#181818;stroke-width:1;"/><text fill="#000000" font-family="sans-serif" font-size="13" lengthAdjust="spacing" textLength="154.6416" x="322" y="476.1045">included in runtime context</text></g><!--link TempTracked to Expired--><g class="link" data-entity-1="ent0019" data-entity-2="ent0022" data-link-type="dependency" data-source-line="15" id="lnk23"><path d="M478.01,431.8994 C482.62,454.2194 488.1873,481.2232 492.7873,503.5132" fill="none" id="TempTracked-to-Expired" style="stroke:#181818;stroke-width:1;"/><polygon fill="#181818" points="494,509.3894,496.0984,499.7667,492.9894,504.4926,488.2635,501.3836,494,509.3894" style="stroke:#181818;stroke-width:1;"/><text fill="#000000" font-family="sans-serif" font-size="13" lengthAdjust="spacing" textLength="72.2617" x="489" y="476.1045">TTL elapsed</text></g><!--link Expired to *end*--><g class="link" data-entity-1="ent0022" data-entity-2="ent0024" data-link-type="dependency" data-source-line="16" id="lnk25"><path d="M499,559.8994 C499,587.6494 499,625.7494 499,645.4894" fill="none" id="Expired-to-*end*" style="stroke:#181818;stroke-width:1;"/><polygon fill="#181818" points="499,651.4894,503,642.4894,499,646.4894,495,642.4894,499,651.4894" style="stroke:#181818;stroke-width:1;"/></g><?plantuml-src TP8zRiCm38LtdO9Zqi8NAD0kRROE1UAYGz61jccNY2m959sVsrUsOiH9q4tY-nxvH5jPBS5sg68j79IzWoylkzRw0nImLLGoSSSke60FyHSRVs3NGOisaZ7V3pzG52_mnX4hIusP3rDru_Bv2TYnGkrTozsASlLPPQ2rcPcHVqNNS9D69aSyzPMtG4v98YXAHmgHr5oWqN9ENarJudnPPVVQBEIH_X2lL6k6bQrDmPQzB_hKMz6EKOHwlq-rLdo_fBD-do8d5y8G22Kkk4yNbsHPlWDP337T7c5mz_cl3F-iI4W7SV5gaoNreHIiTpaHTmvjqGZlARqtQLvGJkS6PWdVpc1Nsw59GbgK34wvf_4xAXtrphSv1fRRXvcvEXBfT_a3?></g></svg>