<?plantuml 1.2026.2?><svg xmlns="http://www.w3.org/2000/svg" xmlns:xlink="http://www.w3.org/1999/xlink" contentStyleType="text/css" data-diagram-type="DESCRIPTION" height="315px" preserveAspectRatio="none" style="width:1101px;height:315px;background:#FFFFFF;" version="1.1" viewBox="0 0 1101 315" width="1101px" zoomAndPan="magnify"><title>Subscription Workflow - Architecture</title><defs/><g><g class="title" data-source-line="1"><text fill="#000000" font-family="sans-serif" font-size="14" font-weight="bold" lengthAdjust="spacing" textLength="247.3516" x="390.3242" y="24.5332">Subscription Workflow - Architecture</text></g><!--entity entry--><g class="entity" data-qualified-name="entry" data-source-line="6" id="ent0002"><rect fill="#F1F1F1" height="37.6094" rx="2.5" ry="2.5" style="stroke:#181818;stroke-width:0.5;" width="104.8135" x="430.5" y="50.6094"/><text fill="#000000" font-family="sans-serif" font-size="14" lengthAdjust="spacing" textLength="84.8135" x="440.5" y="75.1426">StrategyEntry</text></g><!--entity workflow--><g class="entity" data-qualified-name="workflow" data-source-line="7" id="ent0003"><rect fill="#F1F1F1" height="37.6094" rx="2.5" ry="2.5" style="stroke:#181818;stroke-width:0.5;" width="154.5996" x="405.5" y="144.6094"/><text fill="#000000" font-family="sans-serif" font-size="14" lengthAdjust="spacing" textLength="134.5996" x="415.5" y="169.1426">SubscriptionWorkflow</text></g><!--entity engine--><g class="entity" data-qualified-name="engine" data-source-line="8" id="ent0004"><rect fill="#F1F1F1" height="37.6094" rx="2.5" ry="2.5" style="stroke:#181818;stroke-width:0.5;" width="175.6543" x="6" y="263.1094"/><text fill="#000000" font-family="sans-serif" font-size="14" lengthAdjust="spacing" textLength="155.6543" x="16" y="287.6426">SubscriptionModeEngine</text></g><!--entity market--><g class="entity" data-qualified-name="market" data-source-line="9" id="ent0005"><rect fill="#F1F1F1" height="37.6094" rx="2.5" ry="2.5" style="stroke:#181818;stroke-width:0.5;" width="121.9238" x="200" y="263.1094"/><text fill="#000000" font-family="sans-serif" font-size="14" lengthAdjust="spacing" textLength="101.9238" x="210" y="287.6426">Market Gateway</text></g><!--entity account--><g class="entity" data-qualified-name="account" data-source-line="10" id="ent0006"><rect fill="#F1F1F1" height="37.6094" rx="2.5" ry="2.5" style="stroke:#181818;stroke-width:0.5;" width="129.7236" x="346" y="263.1094"/><text fill="#000000" font-family="sans-serif" font-size="14" lengthAdjust="spacing" textLength="109.7236" x="356" y="287.6426">Account Gateway</text></g><!--entity target--><g class="entity" data-qualified-name="target" data-source-line="11" id="ent0007"><rect fill="#F1F1F1" height="37.6094" rx="2.5" ry="2.5" style="stroke:#181818;stroke-width:0.5;" width="128.958" x="494.5" y="263.1094"/><text fill="#000000" font-family="sans-serif" font-size="14" lengthAdjust="spacing" textLength="108.958" x="504.5" y="287.6426">Target Aggregate</text></g><!--entity positions--><g class="entity" data-qualified-name="positions" data-source-line="12" id="ent0008"><rect fill="#F1F1F1" height="37.6094" rx="2.5" ry="2.5" style="stroke:#181818;stroke-width:0.5;" width="138.3027" x="661" y="263.1094"/><text fill="#000000" font-family="sans-serif" font-size="14" lengthAdjust="spacing" textLength="118.3027" x="671" y="287.6426">Position Aggregate</text></g><!--entity state--><g class="entity" data-qualified-name="state" data-source-line="13" id="ent0009"><rect fill="#F1F1F1" height="55.2188" rx="2.5" ry="2.5" style="stroke:#181818;stroke-width:0.5;" width="171.7373" x="857" y="254.6094"/><text fill="#000000" font-family="sans-serif" font-size="14" lengthAdjust="spacing" textLength="108.9443" x="867" y="279.1426">Subscription Sets</text><text fill="#000000" font-family="sans-serif" font-size="14" lengthAdjust="spacing" textLength="151.7373" x="867" y="296.752">subscribed / stale / temp</text></g><g class="link" data-entity-1="ent0002" data-entity-2="ent0003" data-link-type="dependency" id="lnk10"><polygon fill="#181818" points="483,144.4709,487,135.4709,483,139.4709,479,135.4709,483,144.4709" style="stroke:#181818;stroke-width:1;"/><path d="M483,88.7856 C483,104.9145 483,122.3535 483,138.4709" fill="none" style="stroke:#181818;stroke-width:1;"/><text fill="#000000" font-family="sans-serif" font-size="13" lengthAdjust="spacing" textLength="121.7607" x="485" y="122.1045">init + reconcile hooks</text></g><g class="link" data-entity-1="ent0003" data-entity-2="ent0004" data-link-type="dependency" id="lnk11"><polygon fill="#181818" points="102.9255,262.878,110.7452,256.8903,105.3186,258.4879,103.7211,253.0613,102.9255,262.878" style="stroke:#181818;stroke-width:1;"/><path d="M405.2844,166.4091 C322.9036,169.503 199.119,177.8941 158,200.6094 C132.3698,214.7682 116.1844,238.5552 105.7973,257.6099" fill="none" style="stroke:#181818;stroke-width:1;"/><text fill="#000000" font-family="sans-serif" font-size="13" lengthAdjust="spacing" textLength="92.479" x="160" y="224.1045">resolve(context)</text></g><g class="link" data-entity-1="ent0003" data-entity-2="ent0005" data-link-type="dependency" id="lnk12"><polygon fill="#181818" points="257.635,262.8497,260.5176,253.4322,257.0305,257.8864,252.5763,254.3993,257.635,262.8497" style="stroke:#181818;stroke-width:1;"/><path d="M405.4981,168.2498 C352.7667,172.4405 289.3521,181.4196 271,200.6094 C255.3288,216.9958 254.6885,238.6548 256.9096,256.8937" fill="none" style="stroke:#181818;stroke-width:1;"/><text fill="#000000" font-family="sans-serif" font-size="13" lengthAdjust="spacing" textLength="89.5781" x="292.884" y="216.1045">contracts, ticks,</text><text fill="#000000" font-family="sans-serif" font-size="13" lengthAdjust="spacing" textLength="129.3462" x="273" y="232.4561">subscribe/unsubscribe</text></g><g class="link" data-entity-1="ent0003" data-entity-2="ent0006" data-link-type="dependency" id="lnk13"><polygon fill="#181818" points="407.9855,262.9236,410.9895,253.544,407.4452,257.9528,403.0364,254.4085,407.9855,262.9236" style="stroke:#181818;stroke-width:1;"/><path d="M436.7226,182.6491 C429.4019,187.4399 422.7066,193.3604 418,200.6094 C405.9297,219.1995 405.4439,239.5417 407.3371,256.9587" fill="none" style="stroke:#181818;stroke-width:1;"/><text fill="#000000" font-family="sans-serif" font-size="13" lengthAdjust="spacing" textLength="105.5044" x="420" y="224.1045">get_all_positions()</text></g><g class="link" data-entity-1="ent0003" data-entity-2="ent0007" data-link-type="dependency" id="lnk14"><polygon fill="#181818" points="554.6003,262.8532,556.0485,253.1114,553.2635,258.0352,548.3397,255.2503,554.6003,262.8532" style="stroke:#181818;stroke-width:1;"/><path d="M509.725,182.8427 C515.9887,188.0371 522.2207,194.0779 527,200.6094 C540.9435,219.6646 548.216,239.8429 552.9961,257.0716" fill="none" style="stroke:#181818;stroke-width:1;"/><text fill="#000000" font-family="sans-serif" font-size="13" lengthAdjust="spacing" textLength="154.6289" x="548" y="224.1045">active contracts by product</text></g><g class="link" data-entity-1="ent0003" data-entity-2="ent0008" data-link-type="dependency" id="lnk15"><polygon fill="#181818" points="730.3456,262.8597,733.9991,253.7135,730.1547,257.8633,726.0049,254.019,730.3456,262.8597" style="stroke:#181818;stroke-width:1;"/><path d="M560.5999,168.1977 C616.8262,172.3873 686.58,181.3886 708,200.6094 C725.469,216.2848 729.4097,238.3617 730.1165,256.8641" fill="none" style="stroke:#181818;stroke-width:1;"/><text fill="#000000" font-family="sans-serif" font-size="13" lengthAdjust="spacing" textLength="186.4434" x="729" y="224.1045">active positions / pending orders</text></g><g class="link" data-entity-1="ent0003" data-entity-2="ent0009" data-link-type="dependency" id="lnk16"><polygon fill="#181818" points="943.1543,254.4848,946.4297,245.1966,942.7587,249.5005,938.4548,245.8295,943.1543,254.4848" style="stroke:#181818;stroke-width:1;"/><path d="M560.5609,166.2168 C678.9573,169.3754 893.9622,178.1568 921,200.6094 C936.6046,213.5676 941.2466,230.4469 942.6796,248.5036" fill="none" style="stroke:#181818;stroke-width:1;"/><text fill="#000000" font-family="sans-serif" font-size="13" lengthAdjust="spacing" textLength="127.1753" x="954.1877" y="216.1045">update temp symbols,</text><text fill="#000000" font-family="sans-serif" font-size="13" lengthAdjust="spacing" textLength="149.5508" x="943" y="232.4561">stale timers, subscriptions</text></g><?plantuml-src TP9DRzim38Rl_XLSJnsM8FST1kHGx5IWG0RiCg1WP5OHB8k2I3VplnyjPuvTe3UQV5v-lB86ZGIduIokXAo14_pcqhr5li8UZiLTWfBJeL3p9HVqFKB4aGS5wKanOIDTI1aBzY0NRFaQaeStZ4AhYkC-SwAa9nrjNB6Ec7oafbagy73IWaf-V4fQnWT00PgY3RBQy_-QbRpUFZw3dxcbf-H3eblZALp3prWwKlXf6rnndjxNr1ewEiT3sb8uvzROBopUUXszB-GDhPpMv1fxOGdLy2sORsdvx1OuaSgV97FgJ2qSG1JDrmCezRbsiOIQlTL1sEz_B0x1TmWfA7oRNe6J2wQxC7VIBCI4pmuPN4WuljEZiKf_zUiMcpqoR2eNT2exqE0wsQqMF0ptU2k_cMTwy-OLOtnThd_yC6dspqWR4jxfFX3E8-J2xU1qgrXQtKNtr04ofNRwLxcqL3vSNzqpsP3RAPXS1HdxCyTwM3LRGs-w7SZgQUGV?></g></svg>